<svg width="166" height="145" viewBox="0 0 166 145" fill="none" xmlns="http://www.w3.org/2000/svg">
<path d="M117.033 43.7556L97.4996 18H48.0332M117.033 43.7556H64.6521M117.033 43.7556V94H64.6521M64.6521 43.7556L48.0332 18M64.6521 43.7556V94M48.0332 18V61.2778L64.6521 94" stroke="#9C9C9C"/>
<path d="M67.0752 116.448C67.0752 118.62 66.4812 120.258 65.2932 121.362C64.1172 122.454 62.4732 123 60.3612 123H56.7792V110.148H60.7392C62.0352 110.148 63.1572 110.388 64.1052 110.868C65.0532 111.348 65.7852 112.056 66.3012 112.992C66.8172 113.916 67.0752 115.068 67.0752 116.448ZM65.3652 116.502C65.3652 114.786 64.9392 113.532 64.0872 112.74C63.2472 111.936 62.0532 111.534 60.5052 111.534H58.3992V121.614H60.1452C63.6252 121.614 65.3652 119.91 65.3652 116.502ZM70.5216 109.734C70.7616 109.734 70.9716 109.818 71.1516 109.986C71.3436 110.142 71.4396 110.394 71.4396 110.742C71.4396 111.078 71.3436 111.33 71.1516 111.498C70.9716 111.666 70.7616 111.75 70.5216 111.75C70.2576 111.75 70.0356 111.666 69.8556 111.498C69.6756 111.33 69.5856 111.078 69.5856 110.742C69.5856 110.394 69.6756 110.142 69.8556 109.986C70.0356 109.818 70.2576 109.734 70.5216 109.734ZM71.2956 113.352V123H69.7116V113.352H71.2956ZM77.7723 113.172C78.4083 113.172 78.9783 113.292 79.4823 113.532C79.9983 113.772 80.4363 114.138 80.7963 114.63H80.8863L81.1023 113.352H82.3623V123.162C82.3623 124.542 82.0083 125.58 81.3003 126.276C80.6043 126.972 79.5183 127.32 78.0423 127.32C76.6263 127.32 75.4683 127.116 74.5683 126.708V125.25C75.5163 125.754 76.7043 126.006 78.1323 126.006C78.9603 126.006 79.6083 125.76 80.0763 125.268C80.5563 124.788 80.7963 124.128 80.7963 123.288V122.91C80.7963 122.766 80.8023 122.562 80.8143 122.298C80.8263 122.022 80.8383 121.83 80.8503 121.722H80.7783C80.1303 122.694 79.1343 123.18 77.7903 123.18C76.5423 123.18 75.5643 122.742 74.8563 121.866C74.1603 120.99 73.8123 119.766 73.8123 118.194C73.8123 116.658 74.1603 115.44 74.8563 114.54C75.5643 113.628 76.5363 113.172 77.7723 113.172ZM77.9883 114.504C77.1843 114.504 76.5603 114.828 76.1163 115.476C75.6723 116.112 75.4503 117.024 75.4503 118.212C75.4503 119.4 75.6663 120.312 76.0983 120.948C76.5423 121.572 77.1843 121.884 78.0243 121.884C78.9963 121.884 79.7043 121.626 80.1483 121.11C80.5923 120.582 80.8143 119.736 80.8143 118.572V118.194C80.8143 116.874 80.5863 115.932 80.1303 115.368C79.6743 114.792 78.9603 114.504 77.9883 114.504ZM86.2365 109.734C86.4765 109.734 86.6865 109.818 86.8665 109.986C87.0585 110.142 87.1545 110.394 87.1545 110.742C87.1545 111.078 87.0585 111.33 86.8665 111.498C86.6865 111.666 86.4765 111.75 86.2365 111.75C85.9725 111.75 85.7505 111.666 85.5705 111.498C85.3905 111.33 85.3005 111.078 85.3005 110.742C85.3005 110.394 85.3905 110.142 85.5705 109.986C85.7505 109.818 85.9725 109.734 86.2365 109.734ZM87.0105 113.352V123H85.4265V113.352H87.0105ZM93.2891 121.884C93.5291 121.884 93.7751 121.866 94.0271 121.83C94.2791 121.782 94.4831 121.734 94.6391 121.686V122.892C94.4711 122.976 94.2311 123.042 93.9191 123.09C93.6071 123.15 93.3071 123.18 93.0191 123.18C92.5151 123.18 92.0471 123.096 91.6151 122.928C91.1951 122.748 90.8531 122.442 90.5891 122.01C90.3251 121.578 90.1931 120.972 90.1931 120.192V114.576H88.8251V113.82L90.2111 113.19L90.8411 111.138H91.7771V113.352H94.5671V114.576H91.7771V120.156C91.7771 120.744 91.9151 121.182 92.1911 121.47C92.4791 121.746 92.8451 121.884 93.2891 121.884ZM100.225 113.19C101.401 113.19 102.271 113.448 102.835 113.964C103.399 114.48 103.681 115.302 103.681 116.43V123H102.529L102.223 121.632H102.151C101.731 122.16 101.287 122.55 100.819 122.802C100.363 123.054 99.727 123.18 98.911 123.18C98.035 123.18 97.309 122.952 96.733 122.496C96.157 122.028 95.869 121.302 95.869 120.318C95.869 119.358 96.247 118.62 97.003 118.104C97.759 117.576 98.923 117.288 100.495 117.24L102.133 117.186V116.61C102.133 115.806 101.959 115.248 101.611 114.936C101.263 114.624 100.771 114.468 100.135 114.468C99.631 114.468 99.151 114.546 98.695 114.702C98.239 114.846 97.813 115.014 97.417 115.206L96.931 114.018C97.351 113.79 97.849 113.598 98.425 113.442C99.001 113.274 99.601 113.19 100.225 113.19ZM100.693 118.338C99.493 118.386 98.659 118.578 98.191 118.914C97.735 119.25 97.507 119.724 97.507 120.336C97.507 120.876 97.669 121.272 97.993 121.524C98.329 121.776 98.755 121.902 99.271 121.902C100.087 121.902 100.765 121.68 101.305 121.236C101.845 120.78 102.115 120.084 102.115 119.148V118.284L100.693 118.338ZM108.245 123H106.661V109.32H108.245V123Z" fill="#9C9C9C"/>
<rect x="1.0332" y="1" width="163" height="143" stroke="#D9D9D9" stroke-width="2"/>
</svg>
