<svg width="165" height="145" viewBox="0 0 165 145" fill="none" xmlns="http://www.w3.org/2000/svg">
<path d="M47.4824 28.1333L79.3602 18L116.516 28.1333M47.4824 28.1333L85.6935 41.6444M47.4824 28.1333V76.5227L85.6935 94M85.6935 41.6444L116.516 28.1333M85.6935 41.6444V94M116.516 28.1333V76.5227L85.6935 94" stroke="#103558"/>
<path d="M52.31 110.148C53.99 110.148 55.214 110.49 55.982 111.174C56.75 111.846 57.134 112.788 57.134 114C57.134 114.72 56.972 115.392 56.648 116.016C56.336 116.64 55.808 117.15 55.064 117.546C54.32 117.93 53.312 118.122 52.04 118.122H50.654V123H48.71V110.148H52.31ZM52.166 111.786H50.654V116.484H51.824C52.916 116.484 53.738 116.298 54.29 115.926C54.854 115.554 55.136 114.936 55.136 114.072C55.136 113.304 54.896 112.734 54.416 112.362C53.936 111.978 53.186 111.786 52.166 111.786ZM64.3035 113.118C64.4715 113.118 64.6515 113.13 64.8435 113.154C65.0475 113.166 65.2215 113.184 65.3655 113.208L65.1675 114.99C64.8555 114.906 64.5315 114.864 64.1955 114.864C63.7155 114.864 63.2595 114.984 62.8275 115.224C62.4075 115.464 62.0655 115.812 61.8015 116.268C61.5495 116.712 61.4235 117.252 61.4235 117.888V123H59.5155V113.298H61.0275L61.2795 115.026H61.3515C61.6635 114.51 62.0655 114.066 62.5575 113.694C63.0495 113.31 63.6315 113.118 64.3035 113.118ZM68.134 109.608C68.422 109.608 68.674 109.692 68.89 109.86C69.106 110.028 69.214 110.31 69.214 110.706C69.214 111.09 69.106 111.372 68.89 111.552C68.674 111.72 68.422 111.804 68.134 111.804C67.822 111.804 67.558 111.72 67.342 111.552C67.138 111.372 67.036 111.09 67.036 110.706C67.036 110.31 67.138 110.028 67.342 109.86C67.558 109.692 67.822 109.608 68.134 109.608ZM69.07 113.298V123H67.162V113.298H69.07ZM76.9803 113.118C78.1083 113.118 78.9723 113.4 79.5723 113.964C80.1723 114.528 80.4723 115.434 80.4723 116.682V123H78.5823V116.952C78.5823 115.44 77.9163 114.684 76.5843 114.684C75.5883 114.684 74.9043 114.978 74.5323 115.566C74.1603 116.154 73.9743 117 73.9743 118.104V123H72.0663V113.298H73.5783L73.8483 114.594H73.9563C74.2683 114.09 74.6943 113.718 75.2343 113.478C75.7863 113.238 76.3683 113.118 76.9803 113.118ZM86.8962 121.632C87.1482 121.632 87.4062 121.614 87.6702 121.578C87.9342 121.53 88.1622 121.47 88.3542 121.398V122.838C88.1382 122.934 87.8562 123.012 87.5082 123.072C87.1722 123.144 86.8302 123.18 86.4822 123.18C85.9542 123.18 85.4682 123.09 85.0242 122.91C84.5802 122.73 84.2262 122.418 83.9622 121.974C83.7102 121.53 83.5842 120.912 83.5842 120.12V114.756H82.2342V113.892L83.6562 113.172L84.3222 111.12H85.4922V113.298H88.2642V114.756H85.4922V120.084C85.4922 120.612 85.6182 121.002 85.8702 121.254C86.1342 121.506 86.4762 121.632 86.8962 121.632ZM91.2668 109.608C91.5548 109.608 91.8068 109.692 92.0228 109.86C92.2388 110.028 92.3468 110.31 92.3468 110.706C92.3468 111.09 92.2388 111.372 92.0228 111.552C91.8068 111.72 91.5548 111.804 91.2668 111.804C90.9548 111.804 90.6908 111.72 90.4748 111.552C90.2708 111.372 90.1688 111.09 90.1688 110.706C90.1688 110.31 90.2708 110.028 90.4748 109.86C90.6908 109.692 90.9548 109.608 91.2668 109.608ZM92.2028 113.298V123H90.2948V113.298H92.2028ZM100.113 113.118C101.241 113.118 102.105 113.4 102.705 113.964C103.305 114.528 103.605 115.434 103.605 116.682V123H101.715V116.952C101.715 115.44 101.049 114.684 99.7171 114.684C98.7211 114.684 98.0371 114.978 97.6651 115.566C97.2931 116.154 97.1071 117 97.1071 118.104V123H95.1991V113.298H96.7111L96.9811 114.594H97.0891C97.4011 114.09 97.8271 113.718 98.3671 113.478C98.9191 113.238 99.5011 113.118 100.113 113.118ZM109.885 113.118C111.169 113.118 112.159 113.604 112.855 114.576H112.945L113.161 113.298H114.709V123.126C114.709 124.506 114.337 125.55 113.593 126.258C112.861 126.966 111.739 127.32 110.227 127.32C109.519 127.32 108.871 127.272 108.283 127.176C107.707 127.08 107.173 126.93 106.681 126.726V125.052C107.713 125.556 108.931 125.808 110.335 125.808C111.127 125.808 111.739 125.58 112.171 125.124C112.603 124.68 112.819 124.05 112.819 123.234V122.91C112.819 122.754 112.825 122.55 112.837 122.298C112.849 122.046 112.861 121.854 112.873 121.722H112.801C112.477 122.226 112.069 122.598 111.577 122.838C111.085 123.066 110.521 123.18 109.885 123.18C108.661 123.18 107.701 122.742 107.005 121.866C106.321 120.978 105.979 119.748 105.979 118.176C105.979 116.616 106.321 115.386 107.005 114.486C107.701 113.574 108.661 113.118 109.885 113.118ZM110.281 114.702C109.525 114.702 108.943 115.002 108.535 115.602C108.139 116.202 107.941 117.066 107.941 118.194C107.941 119.322 108.139 120.18 108.535 120.768C108.943 121.356 109.537 121.65 110.317 121.65C111.205 121.65 111.853 121.41 112.261 120.93C112.681 120.438 112.891 119.64 112.891 118.536V118.176C112.891 116.94 112.681 116.052 112.261 115.512C111.841 114.972 111.181 114.702 110.281 114.702Z" fill="#103558"/>
<rect x="1" y="1" width="163" height="143" stroke="#103558" stroke-width="2"/>
</svg>
