<svg width="165" height="145" viewBox="0 0 165 145" fill="none" xmlns="http://www.w3.org/2000/svg">
<path d="M68.2186 18V41.3333M68.2186 18L108.453 35.3333L117.122 60.6667M68.2186 18L50.8801 53.7778L46.8789 81.3333M68.2186 41.3333L117.122 60.6667M68.2186 41.3333L46.8789 81.3333M117.122 60.6667L92.0034 96L46.8789 81.3333" stroke="#103558"/>
<path d="M35.364 125H30.72V124.064L32.232 123.722V113.444L30.72 113.084V112.148H35.364V113.084L33.852 113.444V123.722L35.364 124.064V125ZM45.7254 125.18C44.5254 125.18 43.5654 124.766 42.8454 123.938C42.1254 123.098 41.7654 121.85 41.7654 120.194C41.7654 118.538 42.1254 117.29 42.8454 116.45C43.5774 115.598 44.5434 115.172 45.7434 115.172C46.4874 115.172 47.0934 115.31 47.5614 115.586C48.0414 115.862 48.4314 116.198 48.7314 116.594H48.8394C48.8274 116.438 48.8034 116.21 48.7674 115.91C48.7434 115.598 48.7314 115.352 48.7314 115.172V111.32H50.3154V125H49.0374L48.8034 123.704H48.7314C48.4434 124.112 48.0594 124.46 47.5794 124.748C47.0994 125.036 46.4814 125.18 45.7254 125.18ZM45.9774 123.866C46.9974 123.866 47.7114 123.59 48.1194 123.038C48.5394 122.474 48.7494 121.628 48.7494 120.5V120.212C48.7494 119.012 48.5514 118.094 48.1554 117.458C47.7594 116.81 47.0274 116.486 45.9594 116.486C45.1074 116.486 44.4654 116.828 44.0334 117.512C43.6134 118.184 43.4034 119.09 43.4034 120.23C43.4034 121.382 43.6134 122.276 44.0334 122.912C44.4654 123.548 45.1134 123.866 45.9774 123.866ZM61.7676 120.158C61.7676 121.754 61.3596 122.99 60.5436 123.866C59.7396 124.742 58.6476 125.18 57.2676 125.18C56.4156 125.18 55.6536 124.988 54.9816 124.604C54.3216 124.208 53.7996 123.638 53.4156 122.894C53.0316 122.138 52.8396 121.226 52.8396 120.158C52.8396 118.562 53.2416 117.332 54.0456 116.468C54.8496 115.604 55.9416 115.172 57.3216 115.172C58.1976 115.172 58.9656 115.37 59.6256 115.766C60.2976 116.15 60.8196 116.714 61.1916 117.458C61.5756 118.19 61.7676 119.09 61.7676 120.158ZM54.4776 120.158C54.4776 121.298 54.6996 122.204 55.1436 122.876C55.5996 123.536 56.3196 123.866 57.3036 123.866C58.2756 123.866 58.9896 123.536 59.4456 122.876C59.9016 122.204 60.1296 121.298 60.1296 120.158C60.1296 119.018 59.9016 118.124 59.4456 117.476C58.9896 116.828 58.2696 116.504 57.2856 116.504C56.3016 116.504 55.5876 116.828 55.1436 117.476C54.6996 118.124 54.4776 119.018 54.4776 120.158ZM68.922 115.172C70.074 115.172 70.944 115.454 71.532 116.018C72.12 116.57 72.414 117.47 72.414 118.718V125H70.848V118.826C70.848 117.278 70.128 116.504 68.688 116.504C67.62 116.504 66.882 116.804 66.474 117.404C66.066 118.004 65.862 118.868 65.862 119.996V125H64.278V115.352H65.556L65.79 116.666H65.88C66.192 116.162 66.624 115.79 67.176 115.55C67.728 115.298 68.31 115.172 68.922 115.172ZM76.6332 112.346C76.4772 112.97 76.2492 113.672 75.9492 114.452C75.6612 115.22 75.3732 115.922 75.0852 116.558H73.9152C74.0352 116.102 74.1492 115.616 74.2572 115.1C74.3772 114.572 74.4852 114.056 74.5812 113.552C74.6772 113.036 74.7552 112.568 74.8152 112.148H76.5072L76.6332 112.346ZM81.5977 123.884C81.8377 123.884 82.0837 123.866 82.3357 123.83C82.5877 123.782 82.7917 123.734 82.9477 123.686V124.892C82.7797 124.976 82.5397 125.042 82.2277 125.09C81.9157 125.15 81.6157 125.18 81.3277 125.18C80.8237 125.18 80.3557 125.096 79.9237 124.928C79.5037 124.748 79.1617 124.442 78.8977 124.01C78.6337 123.578 78.5017 122.972 78.5017 122.192V116.576H77.1337V115.82L78.5197 115.19L79.1497 113.138H80.0857V115.352H82.8757V116.576H80.0857V122.156C80.0857 122.744 80.2237 123.182 80.4997 123.47C80.7877 123.746 81.1537 123.884 81.5977 123.884ZM91.1214 118.466C91.1214 118.658 91.1094 118.91 91.0854 119.222C91.0734 119.534 91.0614 119.804 91.0494 120.032H91.1214C91.1934 119.936 91.3014 119.798 91.4454 119.618C91.5894 119.438 91.7334 119.258 91.8774 119.078C92.0334 118.886 92.1654 118.73 92.2734 118.61L95.3514 115.352H97.2054L93.2994 119.474L97.4754 125H95.5674L92.2194 120.5L91.1214 121.454V125H89.5554V111.32H91.1214V118.466ZM103.815 115.172C104.967 115.172 105.837 115.454 106.425 116.018C107.013 116.57 107.307 117.47 107.307 118.718V125H105.741V118.826C105.741 117.278 105.021 116.504 103.581 116.504C102.513 116.504 101.775 116.804 101.367 117.404C100.959 118.004 100.755 118.868 100.755 119.996V125H99.1706V115.352H100.449L100.683 116.666H100.773C101.085 116.162 101.517 115.79 102.069 115.55C102.621 115.298 103.203 115.172 103.815 115.172ZM118.686 120.158C118.686 121.754 118.278 122.99 117.462 123.866C116.658 124.742 115.566 125.18 114.186 125.18C113.334 125.18 112.572 124.988 111.9 124.604C111.24 124.208 110.718 123.638 110.334 122.894C109.95 122.138 109.758 121.226 109.758 120.158C109.758 118.562 110.16 117.332 110.964 116.468C111.768 115.604 112.86 115.172 114.24 115.172C115.116 115.172 115.884 115.37 116.544 115.766C117.216 116.15 117.738 116.714 118.11 117.458C118.494 118.19 118.686 119.09 118.686 120.158ZM111.396 120.158C111.396 121.298 111.618 122.204 112.062 122.876C112.518 123.536 113.238 123.866 114.222 123.866C115.194 123.866 115.908 123.536 116.364 122.876C116.82 122.204 117.048 121.298 117.048 120.158C117.048 119.018 116.82 118.124 116.364 117.476C115.908 116.828 115.188 116.504 114.204 116.504C113.22 116.504 112.506 116.828 112.062 117.476C111.618 118.124 111.396 119.018 111.396 120.158ZM127.072 119.546C126.916 119.054 126.778 118.574 126.658 118.106C126.55 117.626 126.466 117.254 126.406 116.99H126.334C126.286 117.254 126.208 117.626 126.1 118.106C125.992 118.574 125.854 119.06 125.686 119.564L123.958 124.982H122.158L119.512 115.334H121.15L122.482 120.482C122.614 120.998 122.74 121.52 122.86 122.048C122.98 122.576 123.064 123.014 123.112 123.362H123.184C123.232 123.158 123.286 122.906 123.346 122.606C123.418 122.306 123.496 121.994 123.58 121.67C123.664 121.334 123.748 121.034 123.832 120.77L125.542 115.334H127.27L128.926 120.77C129.058 121.178 129.184 121.622 129.304 122.102C129.436 122.582 129.526 122.996 129.574 123.344H129.646C129.682 123.044 129.76 122.63 129.88 122.102C130.012 121.574 130.15 121.034 130.294 120.482L131.644 115.334H133.264L130.582 124.982H128.728L127.072 119.546Z" fill="#103558"/>
<rect x="1" y="1" width="163" height="143" stroke="#103558" stroke-width="2"/>
</svg>
