<svg width="166" height="145" viewBox="0 0 166 145" fill="none" xmlns="http://www.w3.org/2000/svg">
<path d="M47.9102 37.9225L75.3194 18L117.155 27.8412L96.4774 53.0444L47.9102 37.9225Z" stroke="#9C9C9C"/>
<path d="M47.9102 38.1924L53.4401 76.7544L94.554 93.9995M94.554 93.9995L96.4774 53.0424M94.554 93.9995L112.346 65.0181L117.155 28.1328" stroke="#9C9C9C"/>
<path d="M52.2872 111.39C50.9072 111.39 49.8212 111.852 49.0292 112.776C48.2372 113.7 47.8412 114.966 47.8412 116.574C47.8412 118.17 48.2072 119.436 48.9392 120.372C49.6832 121.296 50.7932 121.758 52.2692 121.758C52.8332 121.758 53.3672 121.71 53.8712 121.614C54.3752 121.518 54.8672 121.398 55.3472 121.254V122.658C54.8672 122.838 54.3692 122.97 53.8532 123.054C53.3492 123.138 52.7432 123.18 52.0352 123.18C50.7272 123.18 49.6352 122.91 48.7592 122.37C47.8832 121.83 47.2232 121.062 46.7792 120.066C46.3472 119.07 46.1312 117.9 46.1312 116.556C46.1312 115.26 46.3652 114.12 46.8332 113.136C47.3132 112.14 48.0152 111.366 48.9392 110.814C49.8632 110.25 50.9852 109.968 52.3052 109.968C53.6612 109.968 54.8432 110.22 55.8512 110.724L55.2032 112.092C54.8072 111.912 54.3632 111.75 53.8712 111.606C53.3912 111.462 52.8632 111.39 52.2872 111.39ZM66.3242 118.158C66.3242 119.754 65.9163 120.99 65.1003 121.866C64.2963 122.742 63.2043 123.18 61.8243 123.18C60.9723 123.18 60.2103 122.988 59.5383 122.604C58.8783 122.208 58.3563 121.638 57.9723 120.894C57.5883 120.138 57.3963 119.226 57.3963 118.158C57.3963 116.562 57.7983 115.332 58.6023 114.468C59.4063 113.604 60.4983 113.172 61.8783 113.172C62.7543 113.172 63.5223 113.37 64.1823 113.766C64.8543 114.15 65.3763 114.714 65.7483 115.458C66.1323 116.19 66.3242 117.09 66.3242 118.158ZM59.0343 118.158C59.0343 119.298 59.2563 120.204 59.7003 120.876C60.1563 121.536 60.8763 121.866 61.8603 121.866C62.8323 121.866 63.5463 121.536 64.0023 120.876C64.4583 120.204 64.6863 119.298 64.6863 118.158C64.6863 117.018 64.4583 116.124 64.0023 115.476C63.5463 114.828 62.8263 114.504 61.8423 114.504C60.8583 114.504 60.1443 114.828 59.7003 115.476C59.2563 116.124 59.0343 117.018 59.0343 118.158ZM79.4187 113.172C80.5107 113.172 81.3267 113.454 81.8667 114.018C82.4067 114.57 82.6767 115.47 82.6767 116.718V123H81.1107V116.79C81.1107 115.266 80.4567 114.504 79.1487 114.504C78.2127 114.504 77.5407 114.774 77.1327 115.314C76.7367 115.854 76.5387 116.64 76.5387 117.672V123H74.9727V116.79C74.9727 115.266 74.3127 114.504 72.9927 114.504C72.0207 114.504 71.3487 114.804 70.9767 115.404C70.6047 116.004 70.4187 116.868 70.4187 117.996V123H68.8347V113.352H70.1127L70.3467 114.666H70.4367C70.7367 114.162 71.1387 113.79 71.6427 113.55C72.1587 113.298 72.7047 113.172 73.2807 113.172C74.7927 113.172 75.7767 113.712 76.2327 114.792H76.3227C76.6467 114.24 77.0847 113.832 77.6367 113.568C78.2007 113.304 78.7947 113.172 79.4187 113.172ZM90.247 113.172C91.435 113.172 92.389 113.586 93.109 114.414C93.841 115.242 94.207 116.49 94.207 118.158C94.207 119.802 93.841 121.05 93.109 121.902C92.389 122.754 91.429 123.18 90.229 123.18C89.485 123.18 88.867 123.042 88.375 122.766C87.895 122.478 87.517 122.148 87.241 121.776H87.133C87.157 121.98 87.181 122.238 87.205 122.55C87.229 122.862 87.241 123.132 87.241 123.36V127.32H85.657V113.352H86.953L87.169 114.666H87.241C87.529 114.246 87.907 113.892 88.375 113.604C88.843 113.316 89.467 113.172 90.247 113.172ZM89.959 114.504C88.975 114.504 88.279 114.78 87.871 115.332C87.475 115.884 87.265 116.724 87.241 117.852V118.158C87.241 119.346 87.433 120.264 87.817 120.912C88.213 121.548 88.939 121.866 89.995 121.866C90.583 121.866 91.063 121.704 91.435 121.38C91.819 121.056 92.101 120.618 92.281 120.066C92.473 119.502 92.569 118.86 92.569 118.14C92.569 117.036 92.353 116.154 91.921 115.494C91.501 114.834 90.847 114.504 89.959 114.504ZM98.3152 123H96.7312V109.32H98.3152V123ZM105.098 113.172C105.926 113.172 106.634 113.352 107.222 113.712C107.822 114.072 108.278 114.582 108.59 115.242C108.914 115.89 109.076 116.652 109.076 117.528V118.482H102.47C102.494 119.574 102.77 120.408 103.298 120.984C103.838 121.548 104.588 121.83 105.548 121.83C106.16 121.83 106.7 121.776 107.168 121.668C107.648 121.548 108.14 121.38 108.644 121.164V122.55C108.152 122.766 107.666 122.922 107.186 123.018C106.706 123.126 106.136 123.18 105.476 123.18C104.564 123.18 103.754 122.994 103.046 122.622C102.35 122.25 101.804 121.698 101.408 120.966C101.024 120.222 100.832 119.316 100.832 118.248C100.832 117.192 101.006 116.286 101.354 115.53C101.714 114.774 102.212 114.192 102.848 113.784C103.496 113.376 104.246 113.172 105.098 113.172ZM105.08 114.468C104.324 114.468 103.724 114.714 103.28 115.206C102.848 115.686 102.59 116.358 102.506 117.222H107.42C107.408 116.406 107.216 115.746 106.844 115.242C106.472 114.726 105.884 114.468 105.08 114.468ZM113.466 118.068L110.136 113.352H111.936L114.42 116.988L116.886 113.352H118.668L115.338 118.068L118.848 123H117.048L114.42 119.148L111.756 123H109.974L113.466 118.068Z" fill="#9C9C9C"/>
<rect x="1.0332" y="1" width="163" height="143" stroke="#D9D9D9" stroke-width="2"/>
</svg>
