<svg width="166" height="145" viewBox="0 0 166 145" fill="none" xmlns="http://www.w3.org/2000/svg">
<path d="M48 28.1333L79.8778 18L117.033 28.1333M48 28.1333L86.2111 41.6444M48 28.1333V76.5227L86.2111 94M86.2111 41.6444L117.033 28.1333M86.2111 41.6444V94M117.033 28.1333V76.5227L86.2111 94" stroke="#9C9C9C"/>
<path d="M53.6656 110.148C55.3456 110.148 56.5696 110.478 57.3376 111.138C58.1056 111.798 58.4896 112.728 58.4896 113.928C58.4896 114.636 58.3276 115.302 58.0036 115.926C57.6916 116.538 57.1576 117.036 56.4016 117.42C55.6576 117.804 54.6436 117.996 53.3596 117.996H51.8836V123H50.2636V110.148H53.6656ZM53.5216 111.534H51.8836V116.61H53.1796C54.4036 116.61 55.3156 116.412 55.9156 116.016C56.5156 115.62 56.8156 114.948 56.8156 114C56.8156 113.172 56.5516 112.554 56.0236 112.146C55.4956 111.738 54.6616 111.534 53.5216 111.534ZM65.446 113.172C65.626 113.172 65.818 113.184 66.022 113.208C66.238 113.22 66.424 113.244 66.58 113.28L66.382 114.738C66.226 114.702 66.052 114.672 65.86 114.648C65.68 114.624 65.506 114.612 65.338 114.612C64.846 114.612 64.384 114.75 63.952 115.026C63.52 115.29 63.172 115.668 62.908 116.16C62.656 116.64 62.53 117.204 62.53 117.852V123H60.946V113.352H62.242L62.422 115.116H62.494C62.806 114.588 63.208 114.132 63.7 113.748C64.192 113.364 64.774 113.172 65.446 113.172ZM69.1916 109.734C69.4316 109.734 69.6416 109.818 69.8216 109.986C70.0136 110.142 70.1096 110.394 70.1096 110.742C70.1096 111.078 70.0136 111.33 69.8216 111.498C69.6416 111.666 69.4316 111.75 69.1916 111.75C68.9276 111.75 68.7056 111.666 68.5256 111.498C68.3456 111.33 68.2556 111.078 68.2556 110.742C68.2556 110.394 68.3456 110.142 68.5256 109.986C68.7056 109.818 68.9276 109.734 69.1916 109.734ZM69.9656 113.352V123H68.3816V113.352H69.9656ZM77.6662 113.172C78.8182 113.172 79.6882 113.454 80.2762 114.018C80.8642 114.57 81.1582 115.47 81.1582 116.718V123H79.5922V116.826C79.5922 115.278 78.8722 114.504 77.4322 114.504C76.3642 114.504 75.6262 114.804 75.2182 115.404C74.8102 116.004 74.6062 116.868 74.6062 117.996V123H73.0222V113.352H74.3002L74.5342 114.666H74.6242C74.9362 114.162 75.3682 113.79 75.9202 113.55C76.4722 113.298 77.0542 113.172 77.6662 113.172ZM87.3711 121.884C87.6111 121.884 87.8571 121.866 88.1091 121.83C88.3611 121.782 88.5651 121.734 88.7211 121.686V122.892C88.5531 122.976 88.3131 123.042 88.0011 123.09C87.6891 123.15 87.3891 123.18 87.1011 123.18C86.5971 123.18 86.1291 123.096 85.6971 122.928C85.2771 122.748 84.9351 122.442 84.6711 122.01C84.4071 121.578 84.2751 120.972 84.2751 120.192V114.576H82.9071V113.82L84.2931 113.19L84.9231 111.138H85.8591V113.352H88.6491V114.576H85.8591V120.156C85.8591 120.744 85.9971 121.182 86.2731 121.47C86.5611 121.746 86.9271 121.884 87.3711 121.884ZM91.463 109.734C91.703 109.734 91.913 109.818 92.093 109.986C92.285 110.142 92.381 110.394 92.381 110.742C92.381 111.078 92.285 111.33 92.093 111.498C91.913 111.666 91.703 111.75 91.463 111.75C91.199 111.75 90.977 111.666 90.797 111.498C90.617 111.33 90.527 111.078 90.527 110.742C90.527 110.394 90.617 110.142 90.797 109.986C90.977 109.818 91.199 109.734 91.463 109.734ZM92.237 113.352V123H90.653V113.352H92.237ZM99.9377 113.172C101.09 113.172 101.96 113.454 102.548 114.018C103.136 114.57 103.43 115.47 103.43 116.718V123H101.864V116.826C101.864 115.278 101.144 114.504 99.7037 114.504C98.6357 114.504 97.8977 114.804 97.4897 115.404C97.0817 116.004 96.8777 116.868 96.8777 117.996V123H95.2937V113.352H96.5717L96.8057 114.666H96.8957C97.2077 114.162 97.6397 113.79 98.1917 113.55C98.7437 113.298 99.3257 113.172 99.9377 113.172ZM109.841 113.172C110.477 113.172 111.047 113.292 111.551 113.532C112.067 113.772 112.505 114.138 112.865 114.63H112.955L113.171 113.352H114.431V123.162C114.431 124.542 114.077 125.58 113.369 126.276C112.673 126.972 111.587 127.32 110.111 127.32C108.695 127.32 107.537 127.116 106.637 126.708V125.25C107.585 125.754 108.773 126.006 110.201 126.006C111.029 126.006 111.677 125.76 112.145 125.268C112.625 124.788 112.865 124.128 112.865 123.288V122.91C112.865 122.766 112.871 122.562 112.883 122.298C112.895 122.022 112.907 121.83 112.919 121.722H112.847C112.199 122.694 111.203 123.18 109.859 123.18C108.611 123.18 107.633 122.742 106.925 121.866C106.229 120.99 105.881 119.766 105.881 118.194C105.881 116.658 106.229 115.44 106.925 114.54C107.633 113.628 108.605 113.172 109.841 113.172ZM110.057 114.504C109.253 114.504 108.629 114.828 108.185 115.476C107.741 116.112 107.519 117.024 107.519 118.212C107.519 119.4 107.735 120.312 108.167 120.948C108.611 121.572 109.253 121.884 110.093 121.884C111.065 121.884 111.773 121.626 112.217 121.11C112.661 120.582 112.883 119.736 112.883 118.572V118.194C112.883 116.874 112.655 115.932 112.199 115.368C111.743 114.792 111.029 114.504 110.057 114.504Z" fill="#9C9C9C"/>
<rect x="1" y="1" width="163.033" height="143" stroke="#D9D9D9" stroke-width="2"/>
</svg>
