<svg width="166" height="145" viewBox="0 0 166 145" fill="none" xmlns="http://www.w3.org/2000/svg">
<path d="M68.2518 18V41.3333M68.2518 18L108.486 35.3333L117.155 60.6667M68.2518 18L50.9133 53.7778L46.9121 81.3333M68.2518 41.3333L117.155 60.6667M68.2518 41.3333L46.9121 81.3333M117.155 60.6667L92.0366 96L46.9121 81.3333" stroke="#9C9C9C"/>
<path d="M35.3972 125H30.7532V124.064L32.2652 123.722V113.444L30.7532 113.084V112.148H35.3972V113.084L33.8852 113.444V123.722L35.3972 124.064V125ZM45.7586 125.18C44.5586 125.18 43.5986 124.766 42.8786 123.938C42.1586 123.098 41.7986 121.85 41.7986 120.194C41.7986 118.538 42.1586 117.29 42.8786 116.45C43.6106 115.598 44.5766 115.172 45.7766 115.172C46.5206 115.172 47.1266 115.31 47.5946 115.586C48.0746 115.862 48.4646 116.198 48.7646 116.594H48.8726C48.8606 116.438 48.8366 116.21 48.8006 115.91C48.7766 115.598 48.7646 115.352 48.7646 115.172V111.32H50.3486V125H49.0706L48.8366 123.704H48.7646C48.4766 124.112 48.0926 124.46 47.6126 124.748C47.1326 125.036 46.5146 125.18 45.7586 125.18ZM46.0106 123.866C47.0306 123.866 47.7446 123.59 48.1526 123.038C48.5726 122.474 48.7826 121.628 48.7826 120.5V120.212C48.7826 119.012 48.5846 118.094 48.1886 117.458C47.7926 116.81 47.0606 116.486 45.9926 116.486C45.1406 116.486 44.4986 116.828 44.0666 117.512C43.6466 118.184 43.4366 119.09 43.4366 120.23C43.4366 121.382 43.6466 122.276 44.0666 122.912C44.4986 123.548 45.1466 123.866 46.0106 123.866ZM61.8008 120.158C61.8008 121.754 61.3928 122.99 60.5768 123.866C59.7728 124.742 58.6808 125.18 57.3008 125.18C56.4488 125.18 55.6868 124.988 55.0148 124.604C54.3548 124.208 53.8328 123.638 53.4488 122.894C53.0648 122.138 52.8728 121.226 52.8728 120.158C52.8728 118.562 53.2748 117.332 54.0788 116.468C54.8828 115.604 55.9748 115.172 57.3548 115.172C58.2308 115.172 58.9988 115.37 59.6588 115.766C60.3308 116.15 60.8528 116.714 61.2248 117.458C61.6088 118.19 61.8008 119.09 61.8008 120.158ZM54.5108 120.158C54.5108 121.298 54.7328 122.204 55.1768 122.876C55.6328 123.536 56.3528 123.866 57.3368 123.866C58.3088 123.866 59.0228 123.536 59.4788 122.876C59.9348 122.204 60.1628 121.298 60.1628 120.158C60.1628 119.018 59.9348 118.124 59.4788 117.476C59.0228 116.828 58.3028 116.504 57.3188 116.504C56.3348 116.504 55.6208 116.828 55.1768 117.476C54.7328 118.124 54.5108 119.018 54.5108 120.158ZM68.9553 115.172C70.1073 115.172 70.9773 115.454 71.5653 116.018C72.1533 116.57 72.4473 117.47 72.4473 118.718V125H70.8813V118.826C70.8813 117.278 70.1613 116.504 68.7213 116.504C67.6533 116.504 66.9153 116.804 66.5073 117.404C66.0993 118.004 65.8953 118.868 65.8953 119.996V125H64.3113V115.352H65.5893L65.8233 116.666H65.9133C66.2253 116.162 66.6573 115.79 67.2093 115.55C67.7613 115.298 68.3433 115.172 68.9553 115.172ZM76.6664 112.346C76.5104 112.97 76.2824 113.672 75.9824 114.452C75.6944 115.22 75.4064 115.922 75.1184 116.558H73.9484C74.0684 116.102 74.1824 115.616 74.2904 115.1C74.4104 114.572 74.5184 114.056 74.6144 113.552C74.7104 113.036 74.7884 112.568 74.8484 112.148H76.5404L76.6664 112.346ZM81.6309 123.884C81.8709 123.884 82.1169 123.866 82.3689 123.83C82.6209 123.782 82.8249 123.734 82.9809 123.686V124.892C82.8129 124.976 82.5729 125.042 82.2609 125.09C81.9489 125.15 81.6489 125.18 81.3609 125.18C80.8569 125.18 80.3889 125.096 79.9569 124.928C79.5369 124.748 79.1949 124.442 78.9309 124.01C78.6669 123.578 78.5349 122.972 78.5349 122.192V116.576H77.1669V115.82L78.5529 115.19L79.1829 113.138H80.1189V115.352H82.9089V116.576H80.1189V122.156C80.1189 122.744 80.2569 123.182 80.5329 123.47C80.8209 123.746 81.1869 123.884 81.6309 123.884ZM91.1546 118.466C91.1546 118.658 91.1426 118.91 91.1186 119.222C91.1066 119.534 91.0946 119.804 91.0826 120.032H91.1546C91.2266 119.936 91.3346 119.798 91.4786 119.618C91.6226 119.438 91.7666 119.258 91.9106 119.078C92.0666 118.886 92.1986 118.73 92.3066 118.61L95.3846 115.352H97.2386L93.3326 119.474L97.5086 125H95.6006L92.2526 120.5L91.1546 121.454V125H89.5886V111.32H91.1546V118.466ZM103.848 115.172C105 115.172 105.87 115.454 106.458 116.018C107.046 116.57 107.34 117.47 107.34 118.718V125H105.774V118.826C105.774 117.278 105.054 116.504 103.614 116.504C102.546 116.504 101.808 116.804 101.4 117.404C100.992 118.004 100.788 118.868 100.788 119.996V125H99.2038V115.352H100.482L100.716 116.666H100.806C101.118 116.162 101.55 115.79 102.102 115.55C102.654 115.298 103.236 115.172 103.848 115.172ZM118.719 120.158C118.719 121.754 118.311 122.99 117.495 123.866C116.691 124.742 115.599 125.18 114.219 125.18C113.367 125.18 112.605 124.988 111.933 124.604C111.273 124.208 110.751 123.638 110.367 122.894C109.983 122.138 109.791 121.226 109.791 120.158C109.791 118.562 110.193 117.332 110.997 116.468C111.801 115.604 112.893 115.172 114.273 115.172C115.149 115.172 115.917 115.37 116.577 115.766C117.249 116.15 117.771 116.714 118.143 117.458C118.527 118.19 118.719 119.09 118.719 120.158ZM111.429 120.158C111.429 121.298 111.651 122.204 112.095 122.876C112.551 123.536 113.271 123.866 114.255 123.866C115.227 123.866 115.941 123.536 116.397 122.876C116.853 122.204 117.081 121.298 117.081 120.158C117.081 119.018 116.853 118.124 116.397 117.476C115.941 116.828 115.221 116.504 114.237 116.504C113.253 116.504 112.539 116.828 112.095 117.476C111.651 118.124 111.429 119.018 111.429 120.158ZM127.106 119.546C126.95 119.054 126.812 118.574 126.692 118.106C126.584 117.626 126.5 117.254 126.44 116.99H126.368C126.32 117.254 126.242 117.626 126.134 118.106C126.026 118.574 125.888 119.06 125.72 119.564L123.992 124.982H122.192L119.546 115.334H121.184L122.516 120.482C122.648 120.998 122.774 121.52 122.894 122.048C123.014 122.576 123.098 123.014 123.146 123.362H123.218C123.266 123.158 123.32 122.906 123.38 122.606C123.452 122.306 123.53 121.994 123.614 121.67C123.698 121.334 123.782 121.034 123.866 120.77L125.576 115.334H127.304L128.96 120.77C129.092 121.178 129.218 121.622 129.338 122.102C129.47 122.582 129.56 122.996 129.608 123.344H129.68C129.716 123.044 129.794 122.63 129.914 122.102C130.046 121.574 130.184 121.034 130.328 120.482L131.678 115.334H133.298L130.616 124.982H128.762L127.106 119.546Z" fill="#9C9C9C"/>
<rect x="1.0332" y="1" width="163" height="143" stroke="#D9D9D9" stroke-width="2"/>
</svg>
