<svg width="165" height="145" viewBox="0 0 165 145" fill="none" xmlns="http://www.w3.org/2000/svg">
<path d="M48.377 37.9225L75.7862 18L117.621 27.8412L96.9442 53.0444L48.377 37.9225Z" stroke="#103558"/>
<path d="M48.377 38.1924L53.9069 76.7544L95.0208 93.9995M95.0208 93.9995L96.9442 53.0424M95.0208 93.9995L112.813 65.0181L117.621 28.1328" stroke="#103558"/>
<path d="M52.2 111.642C50.916 111.642 49.914 112.086 49.194 112.974C48.474 113.85 48.114 115.056 48.114 116.592C48.114 118.116 48.45 119.316 49.122 120.192C49.794 121.068 50.814 121.506 52.182 121.506C52.734 121.506 53.262 121.458 53.766 121.362C54.282 121.254 54.804 121.116 55.332 120.948V122.622C54.828 122.814 54.312 122.952 53.784 123.036C53.268 123.132 52.656 123.18 51.948 123.18C50.628 123.18 49.536 122.91 48.672 122.37C47.808 121.818 47.16 121.05 46.728 120.066C46.296 119.07 46.08 117.906 46.08 116.574C46.08 115.278 46.314 114.132 46.782 113.136C47.262 112.14 47.958 111.366 48.87 110.814C49.782 110.25 50.898 109.968 52.218 109.968C52.866 109.968 53.496 110.04 54.108 110.184C54.732 110.316 55.302 110.508 55.818 110.76L55.098 112.38C54.678 112.188 54.222 112.02 53.73 111.876C53.25 111.72 52.74 111.642 52.2 111.642ZM66.4346 118.14C66.4346 119.748 66.0206 120.99 65.1926 121.866C64.3646 122.742 63.2486 123.18 61.8446 123.18C60.9686 123.18 60.1886 122.982 59.5046 122.586C58.8326 122.19 58.2986 121.62 57.9026 120.876C57.5186 120.12 57.3266 119.208 57.3266 118.14C57.3266 116.532 57.7346 115.296 58.5506 114.432C59.3666 113.556 60.4826 113.118 61.8986 113.118C62.7866 113.118 63.5666 113.316 64.2386 113.712C64.9226 114.096 65.4566 114.66 65.8406 115.404C66.2366 116.148 66.4346 117.06 66.4346 118.14ZM59.2886 118.14C59.2886 119.232 59.4926 120.084 59.9006 120.696C60.3206 121.308 60.9806 121.614 61.8806 121.614C62.7806 121.614 63.4346 121.308 63.8426 120.696C64.2626 120.084 64.4726 119.232 64.4726 118.14C64.4726 117.036 64.2626 116.19 63.8426 115.602C63.4226 115.002 62.7626 114.702 61.8626 114.702C60.9626 114.702 60.3086 115.002 59.9006 115.602C59.4926 116.19 59.2886 117.036 59.2886 118.14ZM79.7254 113.118C80.8174 113.118 81.6394 113.4 82.1914 113.964C82.7434 114.528 83.0194 115.434 83.0194 116.682V123H81.1114V116.934C81.1114 115.434 80.5054 114.684 79.2934 114.684C78.4294 114.684 77.8114 114.954 77.4394 115.494C77.0674 116.022 76.8814 116.784 76.8814 117.78V123H74.9914V116.934C74.9914 115.434 74.3794 114.684 73.1554 114.684C72.2434 114.684 71.6134 114.978 71.2654 115.566C70.9294 116.154 70.7614 117 70.7614 118.104V123H68.8534V113.298H70.3654L70.6354 114.594H70.7434C71.0314 114.09 71.4334 113.718 71.9494 113.478C72.4654 113.238 73.0114 113.118 73.5874 113.118C75.0874 113.118 76.0714 113.64 76.5394 114.684H76.6834C76.9954 114.144 77.4274 113.748 77.9794 113.496C78.5314 113.244 79.1134 113.118 79.7254 113.118ZM90.7813 113.118C91.9453 113.118 92.8813 113.538 93.5893 114.378C94.3093 115.218 94.6693 116.472 94.6693 118.14C94.6693 119.784 94.3093 121.038 93.5893 121.902C92.8693 122.754 91.9273 123.18 90.7633 123.18C90.0193 123.18 89.4133 123.048 88.9453 122.784C88.4893 122.508 88.1233 122.184 87.8473 121.812H87.7213C87.7573 122.028 87.7873 122.286 87.8113 122.586C87.8353 122.874 87.8473 123.132 87.8473 123.36V127.32H85.9393V113.298H87.4873L87.7573 114.594H87.8473C88.1233 114.186 88.4893 113.838 88.9453 113.55C89.4133 113.262 90.0253 113.118 90.7813 113.118ZM90.3313 114.684C89.4313 114.684 88.7953 114.948 88.4233 115.476C88.0513 115.992 87.8593 116.778 87.8473 117.834V118.122C87.8473 119.238 88.0273 120.102 88.3873 120.714C88.7473 121.314 89.4073 121.614 90.3673 121.614C91.1593 121.614 91.7473 121.29 92.1313 120.642C92.5153 119.994 92.7073 119.148 92.7073 118.104C92.7073 117.048 92.5153 116.214 92.1313 115.602C91.7473 114.99 91.1473 114.684 90.3313 114.684ZM99.0094 123H97.1014V109.32H99.0094V123ZM105.822 113.118C107.094 113.118 108.096 113.514 108.828 114.306C109.56 115.086 109.926 116.154 109.926 117.51V118.554H103.41C103.434 119.55 103.692 120.312 104.184 120.84C104.688 121.368 105.39 121.632 106.29 121.632C106.914 121.632 107.466 121.578 107.946 121.47C108.438 121.35 108.942 121.176 109.458 120.948V122.532C108.966 122.748 108.474 122.91 107.982 123.018C107.49 123.126 106.902 123.18 106.218 123.18C105.27 123.18 104.436 122.994 103.716 122.622C103.008 122.25 102.45 121.698 102.042 120.966C101.646 120.222 101.448 119.31 101.448 118.23C101.448 117.138 101.628 116.214 101.988 115.458C102.36 114.702 102.87 114.126 103.518 113.73C104.178 113.322 104.946 113.118 105.822 113.118ZM105.822 114.594C105.138 114.594 104.586 114.816 104.166 115.26C103.758 115.704 103.518 116.334 103.446 117.15H108.018C108.006 116.394 107.82 115.782 107.46 115.314C107.112 114.834 106.566 114.594 105.822 114.594ZM114.169 118.05L110.875 113.298H113.053L115.357 116.79L117.661 113.298H119.821L116.527 118.05L119.983 123H117.823L115.357 119.292L112.873 123H110.713L114.169 118.05Z" fill="#103558"/>
<rect x="1" y="1" width="163" height="143" stroke="#103558" stroke-width="2"/>
</svg>
