<svg width="165" height="145" viewBox="0 0 165 145" fill="none" xmlns="http://www.w3.org/2000/svg">
<path d="M117 43.7556L97.4664 18H48M117 43.7556H64.6189M117 43.7556V94H64.6189M64.6189 43.7556L48 18M64.6189 43.7556V94M48 18V61.2778L64.6189 94" stroke="#103558"/>
<path d="M66.114 116.448C66.114 118.62 65.514 120.258 64.314 121.362C63.126 122.454 61.458 123 59.31 123H55.71V110.148H59.688C60.996 110.148 62.13 110.388 63.09 110.868C64.05 111.348 64.794 112.056 65.322 112.992C65.85 113.916 66.114 115.068 66.114 116.448ZM64.08 116.502C64.08 114.882 63.684 113.694 62.892 112.938C62.112 112.17 61.002 111.786 59.562 111.786H57.654V121.362H59.22C62.46 121.362 64.08 119.742 64.08 116.502ZM69.6672 109.608C69.9552 109.608 70.2072 109.692 70.4232 109.86C70.6392 110.028 70.7472 110.31 70.7472 110.706C70.7472 111.09 70.6392 111.372 70.4232 111.552C70.2072 111.72 69.9552 111.804 69.6672 111.804C69.3552 111.804 69.0912 111.72 68.8752 111.552C68.6712 111.372 68.5692 111.09 68.5692 110.706C68.5692 110.31 68.6712 110.028 68.8752 109.86C69.0912 109.692 69.3552 109.608 69.6672 109.608ZM70.6032 113.298V123H68.6952V113.298H70.6032ZM76.9475 113.118C78.2315 113.118 79.2215 113.604 79.9175 114.576H80.0075L80.2235 113.298H81.7715V123.126C81.7715 124.506 81.3995 125.55 80.6555 126.258C79.9235 126.966 78.8015 127.32 77.2895 127.32C76.5815 127.32 75.9335 127.272 75.3455 127.176C74.7695 127.08 74.2355 126.93 73.7435 126.726V125.052C74.7755 125.556 75.9935 125.808 77.3975 125.808C78.1895 125.808 78.8015 125.58 79.2335 125.124C79.6655 124.68 79.8815 124.05 79.8815 123.234V122.91C79.8815 122.754 79.8875 122.55 79.8995 122.298C79.9115 122.046 79.9235 121.854 79.9355 121.722H79.8635C79.5395 122.226 79.1315 122.598 78.6395 122.838C78.1475 123.066 77.5835 123.18 76.9475 123.18C75.7235 123.18 74.7635 122.742 74.0675 121.866C73.3835 120.978 73.0415 119.748 73.0415 118.176C73.0415 116.616 73.3835 115.386 74.0675 114.486C74.7635 113.574 75.7235 113.118 76.9475 113.118ZM77.3435 114.702C76.5875 114.702 76.0055 115.002 75.5975 115.602C75.2015 116.202 75.0035 117.066 75.0035 118.194C75.0035 119.322 75.2015 120.18 75.5975 120.768C76.0055 121.356 76.5995 121.65 77.3795 121.65C78.2675 121.65 78.9155 121.41 79.3235 120.93C79.7435 120.438 79.9535 119.64 79.9535 118.536V118.176C79.9535 116.94 79.7435 116.052 79.3235 115.512C78.9035 114.972 78.2435 114.702 77.3435 114.702ZM85.7336 109.608C86.0216 109.608 86.2736 109.692 86.4896 109.86C86.7056 110.028 86.8136 110.31 86.8136 110.706C86.8136 111.09 86.7056 111.372 86.4896 111.552C86.2736 111.72 86.0216 111.804 85.7336 111.804C85.4216 111.804 85.1576 111.72 84.9416 111.552C84.7376 111.372 84.6356 111.09 84.6356 110.706C84.6356 110.31 84.7376 110.028 84.9416 109.86C85.1576 109.692 85.4216 109.608 85.7336 109.608ZM86.6696 113.298V123H84.7616V113.298H86.6696ZM93.1579 121.632C93.4099 121.632 93.6679 121.614 93.9319 121.578C94.1959 121.53 94.4239 121.47 94.6159 121.398V122.838C94.3999 122.934 94.1179 123.012 93.7699 123.072C93.4339 123.144 93.0919 123.18 92.7439 123.18C92.2159 123.18 91.7299 123.09 91.2859 122.91C90.8419 122.73 90.4879 122.418 90.2239 121.974C89.9719 121.53 89.8459 120.912 89.8459 120.12V114.756H88.4959V113.892L89.9179 113.172L90.5839 111.12H91.7539V113.298H94.5259V114.756H91.7539V120.084C91.7539 120.612 91.8799 121.002 92.1319 121.254C92.3959 121.506 92.7379 121.632 93.1579 121.632ZM100.319 113.118C101.531 113.118 102.437 113.388 103.037 113.928C103.649 114.456 103.955 115.29 103.955 116.43V123H102.605L102.227 121.65H102.155C101.735 122.178 101.291 122.568 100.823 122.82C100.367 123.06 99.7305 123.18 98.9145 123.18C98.0385 123.18 97.3125 122.946 96.7365 122.478C96.1605 121.998 95.8725 121.254 95.8725 120.246C95.8725 119.262 96.2445 118.512 96.9885 117.996C97.7325 117.48 98.8785 117.198 100.427 117.15L102.083 117.096V116.556C102.083 115.848 101.921 115.35 101.597 115.062C101.273 114.762 100.817 114.612 100.229 114.612C99.7365 114.612 99.2625 114.684 98.8065 114.828C98.3505 114.972 97.9125 115.146 97.4925 115.35L96.8805 113.964C97.3365 113.724 97.8585 113.526 98.4465 113.37C99.0465 113.202 99.6705 113.118 100.319 113.118ZM100.769 118.374C99.6645 118.422 98.8965 118.608 98.4645 118.932C98.0445 119.244 97.8345 119.688 97.8345 120.264C97.8345 120.768 97.9845 121.134 98.2845 121.362C98.5845 121.59 98.9745 121.704 99.4545 121.704C100.199 121.704 100.817 121.494 101.309 121.074C101.813 120.654 102.065 120.024 102.065 119.184V118.338L100.769 118.374ZM108.8 123H106.892V109.32H108.8V123Z" fill="#103558"/>
<rect x="1" y="1" width="163" height="143" stroke="#103558" stroke-width="2"/>
</svg>
