<svg width="45" height="79" viewBox="0 0 45 79" fill="none" xmlns="http://www.w3.org/2000/svg">
<path d="M21.5 26.5L21.5 2" stroke="#103558" stroke-width="3" stroke-linecap="round"/>
<path d="M11 16L21.8764 27L33 16" stroke="#103558" stroke-width="3" stroke-linecap="round"/>
<path d="M8.0493 70.336C8.0493 70.96 7.89331 71.482 7.58131 71.902C7.26931 72.322 6.82531 72.64 6.24931 72.856C5.6733 73.072 4.9893 73.18 4.1973 73.18C3.5253 73.18 2.9433 73.126 2.4513 73.018C1.9713 72.91 1.5453 72.76 1.1733 72.568V71.128C1.5573 71.32 2.0193 71.5 2.5593 71.668C3.1113 71.824 3.6693 71.902 4.23331 71.902C5.0373 71.902 5.6193 71.776 5.9793 71.524C6.3393 71.26 6.5193 70.912 6.5193 70.48C6.5193 70.24 6.4533 70.024 6.32131 69.832C6.18931 69.64 5.9493 69.448 5.6013 69.256C5.2653 69.064 4.7793 68.848 4.1433 68.608C3.5193 68.368 2.9853 68.128 2.5413 67.888C2.0973 67.648 1.7553 67.36 1.5153 67.024C1.2753 66.688 1.1553 66.256 1.1553 65.728C1.1553 64.912 1.4853 64.282 2.1453 63.838C2.8173 63.394 3.6933 63.172 4.7733 63.172C5.36131 63.172 5.90731 63.232 6.41131 63.352C6.9273 63.46 7.4073 63.616 7.8513 63.82L7.3113 65.08C7.0473 64.96 6.76531 64.858 6.4653 64.774C6.17731 64.678 5.88331 64.606 5.58331 64.558C5.2833 64.498 4.9773 64.468 4.6653 64.468C4.0173 64.468 3.5193 64.576 3.1713 64.792C2.8353 64.996 2.6673 65.278 2.6673 65.638C2.6673 65.902 2.7453 66.13 2.9013 66.322C3.0573 66.502 3.3153 66.682 3.6753 66.862C4.0473 67.03 4.5393 67.234 5.1513 67.474C5.7633 67.702 6.2853 67.936 6.7173 68.176C7.14931 68.416 7.47931 68.71 7.70731 69.058C7.9353 69.394 8.0493 69.82 8.0493 70.336ZM14.2506 73.18C13.3986 73.18 12.6366 73.006 11.9646 72.658C11.3046 72.31 10.7826 71.77 10.3986 71.038C10.0266 70.306 9.84059 69.37 9.84059 68.23C9.84059 67.042 10.0386 66.076 10.4346 65.332C10.8306 64.588 11.3646 64.042 12.0366 63.694C12.7206 63.346 13.4946 63.172 14.3586 63.172C14.8506 63.172 15.3246 63.226 15.7806 63.334C16.2366 63.43 16.6086 63.55 16.8966 63.694L16.4106 65.008C16.1226 64.9 15.7866 64.798 15.4026 64.702C15.0186 64.606 14.6586 64.558 14.3226 64.558C13.6746 64.558 13.1406 64.696 12.7206 64.972C12.3006 65.248 11.9886 65.656 11.7846 66.196C11.5806 66.736 11.4786 67.408 11.4786 68.212C11.4786 68.98 11.5806 69.634 11.7846 70.174C11.9886 70.714 12.2946 71.122 12.7026 71.398C13.1106 71.674 13.6206 71.812 14.2326 71.812C14.7606 71.812 15.2226 71.758 15.6186 71.65C16.0266 71.542 16.3986 71.41 16.7346 71.254V72.658C16.4106 72.826 16.0506 72.952 15.6546 73.036C15.2706 73.132 14.8026 73.18 14.2506 73.18ZM23.529 63.172C23.709 63.172 23.901 63.184 24.105 63.208C24.321 63.22 24.507 63.244 24.663 63.28L24.465 64.738C24.309 64.702 24.135 64.672 23.943 64.648C23.763 64.624 23.589 64.612 23.421 64.612C23.049 64.612 22.695 64.69 22.359 64.846C22.023 65.002 21.723 65.224 21.459 65.512C21.195 65.788 20.985 66.124 20.829 66.52C20.685 66.916 20.613 67.36 20.613 67.852V73H19.029V63.352H20.325L20.505 65.116H20.577C20.781 64.756 21.027 64.432 21.315 64.144C21.603 63.844 21.933 63.61 22.305 63.442C22.677 63.262 23.085 63.172 23.529 63.172ZM34.501 68.158C34.501 68.962 34.393 69.676 34.177 70.3C33.973 70.912 33.673 71.434 33.277 71.866C32.893 72.298 32.419 72.628 31.855 72.856C31.303 73.072 30.685 73.18 30.001 73.18C29.365 73.18 28.777 73.072 28.237 72.856C27.697 72.628 27.229 72.298 26.833 71.866C26.437 71.434 26.125 70.912 25.897 70.3C25.681 69.676 25.573 68.962 25.573 68.158C25.573 67.09 25.753 66.19 26.113 65.458C26.473 64.714 26.989 64.15 27.661 63.766C28.333 63.37 29.131 63.172 30.055 63.172C30.931 63.172 31.699 63.37 32.359 63.766C33.031 64.15 33.553 64.714 33.925 65.458C34.309 66.19 34.501 67.09 34.501 68.158ZM27.211 68.158C27.211 68.914 27.307 69.574 27.499 70.138C27.703 70.69 28.015 71.116 28.435 71.416C28.855 71.716 29.389 71.866 30.037 71.866C30.685 71.866 31.219 71.716 31.639 71.416C32.059 71.116 32.365 70.69 32.557 70.138C32.761 69.574 32.863 68.914 32.863 68.158C32.863 67.39 32.761 66.736 32.557 66.196C32.353 65.656 32.041 65.242 31.621 64.954C31.213 64.654 30.679 64.504 30.019 64.504C29.035 64.504 28.321 64.828 27.877 65.476C27.433 66.124 27.211 67.018 27.211 68.158ZM38.5954 73H37.0114V59.32H38.5954V73ZM43.2361 73H41.6521V59.32H43.2361V73Z" fill="#103558"/>
</svg>
