{"accessors" : [{"bufferView" : 0, "byteOffset" : 0, "componentType" : 5123, "count" : 6, "type" : "SCALAR", "max" : [5], "min" : [0]}, {"bufferView" : 1, "byteOffset" : 0, "componentType" : 5126, "count" : 6, "type" : "VEC3", "max" : [2520.485107421875, 406.3148498535156, 69.8376693725586], "min" : [2520.485107421875, 362.3148498535156, 19.551952362060547], "name" : "POSITION"}, {"bufferView" : 1, "byteOffset" : 12, "componentType" : 5126, "count" : 6, "type" : "VEC2", "max" : [1, -0], "min" : [0, -1], "name" : "TEXCOORD_0"}, {"bufferView" : 0, "byteOffset" : 12, "componentType" : 5123, "count" : 36, "type" : "SCALAR", "max" : [31], "min" : [0]}, {"bufferView" : 2, "byteOffset" : 0, "componentType" : 5126, "count" : 32, "type" : "VEC3", "max" : [2520.28515625, 428.1920471191406, 88], "min" : [2432.28515625, 340.1920471191406, 0], "name" : "POSITION"}, {"bufferView" : 2, "byteOffset" : 12, "componentType" : 5126, "count" : 32, "type" : "VEC2", "max" : [200, -0], "min" : [-200, -200], "name" : "TEXCOORD_0"}], "asset" : {"generator" : "Aspose.3D 23.6.0", "version" : "2.0"}, "buffers" : [{"uri" : "data:application/octet-stream;base64,", "byteLength" : 936}], "bufferViews" : [{"buffer" : 0, "byteOffset" : 0, "byteLength" : 84, "target" : 34963}, {"buffer" : 0, "byteOffset" : 88, "byteLength" : 120, "byteStride" : 20, "target" : 34962}, {"buffer" : 0, "byteOffset" : 212, "byteLength" : 720, "byteStride" : 20, "target" : 34962}], "cameras" : [{"perspective" : {"aspectRatio" : 1.3333333333333333, "yfov" : 0.43833943764363487, "zfar" : 1000, "znear" : 1}, "type" : "perspective", "name" : "Camera"}], "images" : [{"uri" : "a0e14f9d.png"}], "materials" : [{"name" : "a0e14f9d", "pbrMetallicRoughness" : {"baseColorFactor" : [0.5019607843137255, 0.5019607843137255, 0.5019607843137255, 1], "baseColorTexture" : {"index" : 0, "texCoord" : 0}, "metallicFactor" : 0, "roughnessFactor" : 0}, "emissiveFactor" : [0, 0, 0], "alphaMode" : "OPAQUE", "doubleSided" : false}, {"name" : "Material", "pbrMetallicRoughness" : {"baseColorFactor" : [1, 1, 1, 0.5], "metallicFactor" : 0, "roughnessFactor" : 0}, "emissiveFactor" : [0, 0, 0], "alphaMode" : "BLEND", "doubleSided" : false}], "meshes" : [{"primitives" : [{"attributes" : {"POSITION" : 1, "TEXCOORD_0" : 2}, "indices" : 0, "material" : 0, "mode" : 4}], "name" : "Model"}, {"primitives" : [{"attributes" : {"POSITION" : 4, "TEXCOORD_0" : 5}, "indices" : 3, "material" : 1, "mode" : 4}], "name" : "Group1"}], "nodes" : [{"camera" : 0, "matrix" : [1, 0, 0, 0, 0, 1, 0, 0, 0, 0, 1, 0, 2805.3076171875, 265.044921875, 284.74658203125, 1], "name" : "Camera"}, {"mesh" : 1, "name" : "Group1"}, {"children" : [1], "matrix" : [-1, 0, 0, 0, 0, 0, 1, 0, 0, 1, 0, 0, 0, 0, 0, 1], "mesh" : 0, "name" : "Model"}], "samplers" : [{"magFilter" : 9729, "minFilter" : 9729, "wrapS" : 10497, "wrapT" : 10497}], "scene" : 0, "scenes" : [{"nodes" : [0, 2]}], "textures" : [{"sampler" : 0, "source" : 0, "name" : ""}]}