<svg width="50" height="50" viewBox="0 0 50 50" fill="none" xmlns="http://www.w3.org/2000/svg">
<rect width="50" height="50" fill="white"/>
<path fill-rule="evenodd" clip-rule="evenodd" d="M14.2207 14.2207C14.8484 13.5931 15.8659 13.5931 16.4936 14.2207L25 22.7272L33.5064 14.2207C34.1341 13.5931 35.1516 13.5931 35.7793 14.2207C36.4069 14.8483 36.4069 15.8659 35.7793 16.4936L27.2729 25L35.7793 33.5064C36.4069 34.1341 36.4069 35.1517 35.7793 35.7793C35.1516 36.4069 34.1341 36.4069 33.5064 35.7793L25 27.2728L16.4936 35.7793C15.8659 36.4069 14.8483 36.4069 14.2207 35.7793C13.5931 35.1516 13.5931 34.1341 14.2207 33.5064L22.7272 25L14.2207 16.4936C13.5931 15.8659 13.5931 14.8483 14.2207 14.2207Z" fill="#4D5061"/>
</svg>
