<svg width="130" height="160" viewBox="0 0 130 160" fill="none" xmlns="http://www.w3.org/2000/svg">
<rect x="1" y="1" width="128" height="158" fill="white"/>
<path d="M99 43.0444L79.7495 20H31M99 43.0444H47.3781M99 43.0444V88H47.3781M47.3781 43.0444L31 20M47.3781 43.0444V88M31 20V58.7222L47.3781 88" stroke="#103558"/>
<path d="M49.55 115.556C49.55 116.888 49.328 118.052 48.884 119.048C48.44 120.032 47.774 120.8 46.886 121.352C45.998 121.904 44.894 122.18 43.574 122.18C42.218 122.18 41.096 121.904 40.208 121.352C39.32 120.8 38.66 120.026 38.228 119.03C37.796 118.034 37.58 116.87 37.58 115.538C37.58 114.218 37.796 113.066 38.228 112.082C38.672 111.098 39.338 110.33 40.226 109.778C41.114 109.226 42.236 108.95 43.592 108.95C44.912 108.95 46.01 109.226 46.886 109.778C47.774 110.318 48.44 111.086 48.884 112.082C49.328 113.066 49.55 114.224 49.55 115.556ZM39.632 115.556C39.632 117.092 39.95 118.304 40.586 119.192C41.222 120.08 42.218 120.524 43.574 120.524C44.942 120.524 45.938 120.08 46.562 119.192C47.186 118.304 47.498 117.092 47.498 115.556C47.498 114.02 47.186 112.814 46.562 111.938C45.95 111.062 44.96 110.624 43.592 110.624C42.224 110.624 41.222 111.062 40.586 111.938C39.95 112.814 39.632 114.02 39.632 115.556ZM57.0408 112.118C58.1688 112.118 59.0328 112.4 59.6328 112.964C60.2328 113.528 60.5328 114.434 60.5328 115.682V122H58.6428V115.952C58.6428 114.44 57.9768 113.684 56.6448 113.684C55.6488 113.684 54.9648 113.978 54.5928 114.566C54.2208 115.154 54.0348 116 54.0348 117.104V122H52.1268V112.298H53.6388L53.9088 113.594H54.0168C54.3288 113.09 54.7548 112.718 55.2948 112.478C55.8468 112.238 56.4288 112.118 57.0408 112.118ZM65.3727 122H63.4647V108.32H65.3727V122ZM69.341 108.608C69.629 108.608 69.881 108.692 70.097 108.86C70.313 109.028 70.421 109.31 70.421 109.706C70.421 110.09 70.313 110.372 70.097 110.552C69.881 110.72 69.629 110.804 69.341 110.804C69.029 110.804 68.765 110.72 68.549 110.552C68.345 110.372 68.243 110.09 68.243 109.706C68.243 109.31 68.345 109.028 68.549 108.86C68.765 108.692 69.029 108.608 69.341 108.608ZM70.277 112.298V122H68.369V112.298H70.277ZM78.1873 112.118C79.3153 112.118 80.1793 112.4 80.7793 112.964C81.3793 113.528 81.6793 114.434 81.6793 115.682V122H79.7893V115.952C79.7893 114.44 79.1233 113.684 77.7913 113.684C76.7953 113.684 76.1113 113.978 75.7393 114.566C75.3673 115.154 75.1813 116 75.1813 117.104V122H73.2733V112.298H74.7853L75.0553 113.594H75.1633C75.4753 113.09 75.9013 112.718 76.4413 112.478C76.9933 112.238 77.5753 112.118 78.1873 112.118ZM88.4272 112.118C89.6992 112.118 90.7012 112.514 91.4332 113.306C92.1652 114.086 92.5312 115.154 92.5312 116.51V117.554H86.0152C86.0392 118.55 86.2972 119.312 86.7892 119.84C87.2932 120.368 87.9952 120.632 88.8952 120.632C89.5192 120.632 90.0712 120.578 90.5512 120.47C91.0432 120.35 91.5472 120.176 92.0632 119.948V121.532C91.5712 121.748 91.0792 121.91 90.5872 122.018C90.0952 122.126 89.5072 122.18 88.8232 122.18C87.8752 122.18 87.0412 121.994 86.3212 121.622C85.6132 121.25 85.0552 120.698 84.6472 119.966C84.2512 119.222 84.0532 118.31 84.0532 117.23C84.0532 116.138 84.2332 115.214 84.5932 114.458C84.9652 113.702 85.4752 113.126 86.1232 112.73C86.7832 112.322 87.5512 112.118 88.4272 112.118ZM88.4272 113.594C87.7432 113.594 87.1912 113.816 86.7712 114.26C86.3632 114.704 86.1232 115.334 86.0512 116.15H90.6232C90.6112 115.394 90.4252 114.782 90.0652 114.314C89.7172 113.834 89.1712 113.594 88.4272 113.594Z" fill="#103558"/>
<rect x="1" y="1" width="128" height="158" stroke="#103558" stroke-width="2"/>
</svg>
