<svg width="130" height="160" viewBox="0 0 130 160" fill="none" xmlns="http://www.w3.org/2000/svg">
<rect x="1" y="1" width="128" height="158" fill="white"/>
<path d="M31 29.0667L62.4006 20L99 29.0667M31 29.0667L68.6391 41.1556M31 29.0667V72.3624L68.6391 88M68.6391 41.1556L99 29.0667M68.6391 41.1556V88M99 29.0667V72.3624L68.6391 88" stroke="#103558"/>
<path d="M35.31 109.148C36.99 109.148 38.214 109.49 38.982 110.174C39.75 110.846 40.134 111.788 40.134 113C40.134 113.72 39.972 114.392 39.648 115.016C39.336 115.64 38.808 116.15 38.064 116.546C37.32 116.93 36.312 117.122 35.04 117.122H33.654V122H31.71V109.148H35.31ZM35.166 110.786H33.654V115.484H34.824C35.916 115.484 36.738 115.298 37.29 114.926C37.854 114.554 38.136 113.936 38.136 113.072C38.136 112.304 37.896 111.734 37.416 111.362C36.936 110.978 36.186 110.786 35.166 110.786ZM47.3035 112.118C47.4715 112.118 47.6515 112.13 47.8435 112.154C48.0475 112.166 48.2215 112.184 48.3655 112.208L48.1675 113.99C47.8555 113.906 47.5315 113.864 47.1955 113.864C46.7155 113.864 46.2595 113.984 45.8275 114.224C45.4075 114.464 45.0655 114.812 44.8015 115.268C44.5495 115.712 44.4235 116.252 44.4235 116.888V122H42.5155V112.298H44.0275L44.2795 114.026H44.3515C44.6635 113.51 45.0655 113.066 45.5575 112.694C46.0495 112.31 46.6315 112.118 47.3035 112.118ZM51.134 108.608C51.422 108.608 51.674 108.692 51.89 108.86C52.106 109.028 52.214 109.31 52.214 109.706C52.214 110.09 52.106 110.372 51.89 110.552C51.674 110.72 51.422 110.804 51.134 110.804C50.822 110.804 50.558 110.72 50.342 110.552C50.138 110.372 50.036 110.09 50.036 109.706C50.036 109.31 50.138 109.028 50.342 108.86C50.558 108.692 50.822 108.608 51.134 108.608ZM52.07 112.298V122H50.162V112.298H52.07ZM59.9803 112.118C61.1083 112.118 61.9723 112.4 62.5723 112.964C63.1723 113.528 63.4723 114.434 63.4723 115.682V122H61.5823V115.952C61.5823 114.44 60.9163 113.684 59.5843 113.684C58.5883 113.684 57.9043 113.978 57.5323 114.566C57.1603 115.154 56.9743 116 56.9743 117.104V122H55.0663V112.298H56.5783L56.8483 113.594H56.9563C57.2683 113.09 57.6943 112.718 58.2343 112.478C58.7863 112.238 59.3683 112.118 59.9803 112.118ZM69.8962 120.632C70.1482 120.632 70.4062 120.614 70.6702 120.578C70.9342 120.53 71.1622 120.47 71.3542 120.398V121.838C71.1382 121.934 70.8562 122.012 70.5082 122.072C70.1722 122.144 69.8302 122.18 69.4822 122.18C68.9542 122.18 68.4682 122.09 68.0242 121.91C67.5802 121.73 67.2262 121.418 66.9622 120.974C66.7102 120.53 66.5842 119.912 66.5842 119.12V113.756H65.2342V112.892L66.6562 112.172L67.3222 110.12H68.4922V112.298H71.2642V113.756H68.4922V119.084C68.4922 119.612 68.6182 120.002 68.8702 120.254C69.1342 120.506 69.4762 120.632 69.8962 120.632ZM74.2668 108.608C74.5548 108.608 74.8068 108.692 75.0228 108.86C75.2388 109.028 75.3468 109.31 75.3468 109.706C75.3468 110.09 75.2388 110.372 75.0228 110.552C74.8068 110.72 74.5548 110.804 74.2668 110.804C73.9548 110.804 73.6908 110.72 73.4748 110.552C73.2708 110.372 73.1688 110.09 73.1688 109.706C73.1688 109.31 73.2708 109.028 73.4748 108.86C73.6908 108.692 73.9548 108.608 74.2668 108.608ZM75.2028 112.298V122H73.2948V112.298H75.2028ZM83.1131 112.118C84.2411 112.118 85.1051 112.4 85.7051 112.964C86.3051 113.528 86.6051 114.434 86.6051 115.682V122H84.7151V115.952C84.7151 114.44 84.0491 113.684 82.7171 113.684C81.7211 113.684 81.0371 113.978 80.6651 114.566C80.2931 115.154 80.1071 116 80.1071 117.104V122H78.1991V112.298H79.7111L79.9811 113.594H80.0891C80.4011 113.09 80.8271 112.718 81.3671 112.478C81.9191 112.238 82.5011 112.118 83.1131 112.118ZM92.885 112.118C94.169 112.118 95.159 112.604 95.855 113.576H95.945L96.161 112.298H97.709V122.126C97.709 123.506 97.337 124.55 96.593 125.258C95.861 125.966 94.739 126.32 93.227 126.32C92.519 126.32 91.871 126.272 91.283 126.176C90.707 126.08 90.173 125.93 89.681 125.726V124.052C90.713 124.556 91.931 124.808 93.335 124.808C94.127 124.808 94.739 124.58 95.171 124.124C95.603 123.68 95.819 123.05 95.819 122.234V121.91C95.819 121.754 95.825 121.55 95.837 121.298C95.849 121.046 95.861 120.854 95.873 120.722H95.801C95.477 121.226 95.069 121.598 94.577 121.838C94.085 122.066 93.521 122.18 92.885 122.18C91.661 122.18 90.701 121.742 90.005 120.866C89.321 119.978 88.979 118.748 88.979 117.176C88.979 115.616 89.321 114.386 90.005 113.486C90.701 112.574 91.661 112.118 92.885 112.118ZM93.281 113.702C92.525 113.702 91.943 114.002 91.535 114.602C91.139 115.202 90.941 116.066 90.941 117.194C90.941 118.322 91.139 119.18 91.535 119.768C91.943 120.356 92.537 120.65 93.317 120.65C94.205 120.65 94.853 120.41 95.261 119.93C95.681 119.438 95.891 118.64 95.891 117.536V117.176C95.891 115.94 95.681 115.052 95.261 114.512C94.841 113.972 94.181 113.702 93.281 113.702Z" fill="#103558"/>
<rect x="1" y="1" width="128" height="158" stroke="#103558" stroke-width="2"/>
</svg>
