<svg width="130" height="160" viewBox="0 0 130 160" fill="none" xmlns="http://www.w3.org/2000/svg">
<rect x="1" y="1" width="128" height="158" fill="white"/>
<path d="M31 37.8255L57.9167 20L99 28.8054L78.6944 51.3558L31 37.8255Z" stroke="#103558"/>
<path d="M31 38.0672L36.4306 72.5702L76.8056 88.0001M76.8056 88.0001L78.6944 51.3541M76.8056 88.0001L94.2778 62.0693L99 29.0664" stroke="#103558"/>
<path d="M34.2 110.642C32.916 110.642 31.914 111.086 31.194 111.974C30.474 112.85 30.114 114.056 30.114 115.592C30.114 117.116 30.45 118.316 31.122 119.192C31.794 120.068 32.814 120.506 34.182 120.506C34.734 120.506 35.262 120.458 35.766 120.362C36.282 120.254 36.804 120.116 37.332 119.948V121.622C36.828 121.814 36.312 121.952 35.784 122.036C35.268 122.132 34.656 122.18 33.948 122.18C32.628 122.18 31.536 121.91 30.672 121.37C29.808 120.818 29.16 120.05 28.728 119.066C28.296 118.07 28.08 116.906 28.08 115.574C28.08 114.278 28.314 113.132 28.782 112.136C29.262 111.14 29.958 110.366 30.87 109.814C31.782 109.25 32.898 108.968 34.218 108.968C34.866 108.968 35.496 109.04 36.108 109.184C36.732 109.316 37.302 109.508 37.818 109.76L37.098 111.38C36.678 111.188 36.222 111.02 35.73 110.876C35.25 110.72 34.74 110.642 34.2 110.642ZM48.4346 117.14C48.4346 118.748 48.0206 119.99 47.1926 120.866C46.3646 121.742 45.2486 122.18 43.8446 122.18C42.9686 122.18 42.1886 121.982 41.5046 121.586C40.8326 121.19 40.2986 120.62 39.9026 119.876C39.5186 119.12 39.3266 118.208 39.3266 117.14C39.3266 115.532 39.7346 114.296 40.5506 113.432C41.3666 112.556 42.4826 112.118 43.8986 112.118C44.7866 112.118 45.5666 112.316 46.2386 112.712C46.9226 113.096 47.4566 113.66 47.8406 114.404C48.2366 115.148 48.4346 116.06 48.4346 117.14ZM41.2886 117.14C41.2886 118.232 41.4926 119.084 41.9006 119.696C42.3206 120.308 42.9806 120.614 43.8806 120.614C44.7806 120.614 45.4346 120.308 45.8426 119.696C46.2626 119.084 46.4726 118.232 46.4726 117.14C46.4726 116.036 46.2626 115.19 45.8426 114.602C45.4226 114.002 44.7626 113.702 43.8626 113.702C42.9626 113.702 42.3086 114.002 41.9006 114.602C41.4926 115.19 41.2886 116.036 41.2886 117.14ZM61.7254 112.118C62.8174 112.118 63.6394 112.4 64.1914 112.964C64.7434 113.528 65.0194 114.434 65.0194 115.682V122H63.1114V115.934C63.1114 114.434 62.5054 113.684 61.2934 113.684C60.4294 113.684 59.8114 113.954 59.4394 114.494C59.0674 115.022 58.8814 115.784 58.8814 116.78V122H56.9914V115.934C56.9914 114.434 56.3794 113.684 55.1554 113.684C54.2434 113.684 53.6134 113.978 53.2654 114.566C52.9294 115.154 52.7614 116 52.7614 117.104V122H50.8534V112.298H52.3654L52.6354 113.594H52.7434C53.0314 113.09 53.4334 112.718 53.9494 112.478C54.4654 112.238 55.0114 112.118 55.5874 112.118C57.0874 112.118 58.0714 112.64 58.5394 113.684H58.6834C58.9954 113.144 59.4274 112.748 59.9794 112.496C60.5314 112.244 61.1134 112.118 61.7254 112.118ZM72.7813 112.118C73.9453 112.118 74.8813 112.538 75.5893 113.378C76.3093 114.218 76.6693 115.472 76.6693 117.14C76.6693 118.784 76.3093 120.038 75.5893 120.902C74.8693 121.754 73.9273 122.18 72.7633 122.18C72.0193 122.18 71.4133 122.048 70.9453 121.784C70.4893 121.508 70.1233 121.184 69.8473 120.812H69.7213C69.7573 121.028 69.7873 121.286 69.8113 121.586C69.8353 121.874 69.8473 122.132 69.8473 122.36V126.32H67.9393V112.298H69.4873L69.7573 113.594H69.8473C70.1233 113.186 70.4893 112.838 70.9453 112.55C71.4133 112.262 72.0253 112.118 72.7813 112.118ZM72.3313 113.684C71.4313 113.684 70.7953 113.948 70.4233 114.476C70.0513 114.992 69.8593 115.778 69.8473 116.834V117.122C69.8473 118.238 70.0273 119.102 70.3873 119.714C70.7473 120.314 71.4073 120.614 72.3673 120.614C73.1593 120.614 73.7473 120.29 74.1313 119.642C74.5153 118.994 74.7073 118.148 74.7073 117.104C74.7073 116.048 74.5153 115.214 74.1313 114.602C73.7473 113.99 73.1473 113.684 72.3313 113.684ZM81.0094 122H79.1014V108.32H81.0094V122ZM87.8217 112.118C89.0937 112.118 90.0957 112.514 90.8277 113.306C91.5597 114.086 91.9257 115.154 91.9257 116.51V117.554H85.4097C85.4337 118.55 85.6917 119.312 86.1837 119.84C86.6877 120.368 87.3897 120.632 88.2897 120.632C88.9137 120.632 89.4657 120.578 89.9457 120.47C90.4377 120.35 90.9417 120.176 91.4577 119.948V121.532C90.9657 121.748 90.4737 121.91 89.9817 122.018C89.4897 122.126 88.9017 122.18 88.2177 122.18C87.2697 122.18 86.4357 121.994 85.7157 121.622C85.0077 121.25 84.4497 120.698 84.0417 119.966C83.6457 119.222 83.4477 118.31 83.4477 117.23C83.4477 116.138 83.6277 115.214 83.9877 114.458C84.3597 113.702 84.8697 113.126 85.5177 112.73C86.1777 112.322 86.9457 112.118 87.8217 112.118ZM87.8217 113.594C87.1377 113.594 86.5857 113.816 86.1657 114.26C85.7577 114.704 85.5177 115.334 85.4457 116.15H90.0177C90.0057 115.394 89.8197 114.782 89.4597 114.314C89.1117 113.834 88.5657 113.594 87.8217 113.594ZM96.1689 117.05L92.8749 112.298H95.0529L97.3569 115.79L99.6609 112.298H101.821L98.5269 117.05L101.983 122H99.8229L97.3569 118.292L94.8729 122H92.7129L96.1689 117.05Z" fill="#103558"/>
<rect x="1" y="1" width="128" height="158" stroke="#103558" stroke-width="2"/>
</svg>
