<svg width="130" height="160" viewBox="0 0 130 160" fill="none" xmlns="http://www.w3.org/2000/svg">
<rect x="1" y="1" width="128" height="158" fill="white"/>
<path d="M99 43.0444L79.7495 20H31M99 43.0444H47.3781M99 43.0444V88H47.3781M47.3781 43.0444L31 20M47.3781 43.0444V88M31 20V58.7222L47.3781 88" stroke="#103558"/>
<path d="M48.614 115.448C48.614 117.62 48.014 119.258 46.814 120.362C45.626 121.454 43.958 122 41.81 122H38.21V109.148H42.188C43.496 109.148 44.63 109.388 45.59 109.868C46.55 110.348 47.294 111.056 47.822 111.992C48.35 112.916 48.614 114.068 48.614 115.448ZM46.58 115.502C46.58 113.882 46.184 112.694 45.392 111.938C44.612 111.17 43.502 110.786 42.062 110.786H40.154V120.362H41.72C44.96 120.362 46.58 118.742 46.58 115.502ZM52.1672 108.608C52.4552 108.608 52.7072 108.692 52.9232 108.86C53.1392 109.028 53.2472 109.31 53.2472 109.706C53.2472 110.09 53.1392 110.372 52.9232 110.552C52.7072 110.72 52.4552 110.804 52.1672 110.804C51.8552 110.804 51.5912 110.72 51.3752 110.552C51.1712 110.372 51.0692 110.09 51.0692 109.706C51.0692 109.31 51.1712 109.028 51.3752 108.86C51.5912 108.692 51.8552 108.608 52.1672 108.608ZM53.1032 112.298V122H51.1952V112.298H53.1032ZM59.4475 112.118C60.7315 112.118 61.7215 112.604 62.4175 113.576H62.5075L62.7235 112.298H64.2715V122.126C64.2715 123.506 63.8995 124.55 63.1555 125.258C62.4235 125.966 61.3015 126.32 59.7895 126.32C59.0815 126.32 58.4335 126.272 57.8455 126.176C57.2695 126.08 56.7355 125.93 56.2435 125.726V124.052C57.2755 124.556 58.4935 124.808 59.8975 124.808C60.6895 124.808 61.3015 124.58 61.7335 124.124C62.1655 123.68 62.3815 123.05 62.3815 122.234V121.91C62.3815 121.754 62.3875 121.55 62.3995 121.298C62.4115 121.046 62.4235 120.854 62.4355 120.722H62.3635C62.0395 121.226 61.6315 121.598 61.1395 121.838C60.6475 122.066 60.0835 122.18 59.4475 122.18C58.2235 122.18 57.2635 121.742 56.5675 120.866C55.8835 119.978 55.5415 118.748 55.5415 117.176C55.5415 115.616 55.8835 114.386 56.5675 113.486C57.2635 112.574 58.2235 112.118 59.4475 112.118ZM59.8435 113.702C59.0875 113.702 58.5055 114.002 58.0975 114.602C57.7015 115.202 57.5035 116.066 57.5035 117.194C57.5035 118.322 57.7015 119.18 58.0975 119.768C58.5055 120.356 59.0995 120.65 59.8795 120.65C60.7675 120.65 61.4155 120.41 61.8235 119.93C62.2435 119.438 62.4535 118.64 62.4535 117.536V117.176C62.4535 115.94 62.2435 115.052 61.8235 114.512C61.4035 113.972 60.7435 113.702 59.8435 113.702ZM68.2336 108.608C68.5216 108.608 68.7736 108.692 68.9896 108.86C69.2056 109.028 69.3136 109.31 69.3136 109.706C69.3136 110.09 69.2056 110.372 68.9896 110.552C68.7736 110.72 68.5216 110.804 68.2336 110.804C67.9216 110.804 67.6576 110.72 67.4416 110.552C67.2376 110.372 67.1356 110.09 67.1356 109.706C67.1356 109.31 67.2376 109.028 67.4416 108.86C67.6576 108.692 67.9216 108.608 68.2336 108.608ZM69.1696 112.298V122H67.2616V112.298H69.1696ZM75.6579 120.632C75.9099 120.632 76.1679 120.614 76.4319 120.578C76.6959 120.53 76.9239 120.47 77.1159 120.398V121.838C76.8999 121.934 76.6179 122.012 76.2699 122.072C75.9339 122.144 75.5919 122.18 75.2439 122.18C74.7159 122.18 74.2299 122.09 73.7859 121.91C73.3419 121.73 72.9879 121.418 72.7239 120.974C72.4719 120.53 72.3459 119.912 72.3459 119.12V113.756H70.9959V112.892L72.4179 112.172L73.0839 110.12H74.2539V112.298H77.0259V113.756H74.2539V119.084C74.2539 119.612 74.3799 120.002 74.6319 120.254C74.8959 120.506 75.2379 120.632 75.6579 120.632ZM82.8185 112.118C84.0305 112.118 84.9365 112.388 85.5365 112.928C86.1485 113.456 86.4545 114.29 86.4545 115.43V122H85.1045L84.7265 120.65H84.6545C84.2345 121.178 83.7905 121.568 83.3225 121.82C82.8665 122.06 82.2305 122.18 81.4145 122.18C80.5385 122.18 79.8125 121.946 79.2365 121.478C78.6605 120.998 78.3725 120.254 78.3725 119.246C78.3725 118.262 78.7445 117.512 79.4885 116.996C80.2325 116.48 81.3785 116.198 82.9265 116.15L84.5825 116.096V115.556C84.5825 114.848 84.4205 114.35 84.0965 114.062C83.7725 113.762 83.3165 113.612 82.7285 113.612C82.2365 113.612 81.7625 113.684 81.3065 113.828C80.8505 113.972 80.4125 114.146 79.9925 114.35L79.3805 112.964C79.8365 112.724 80.3585 112.526 80.9465 112.37C81.5465 112.202 82.1705 112.118 82.8185 112.118ZM83.2685 117.374C82.1645 117.422 81.3965 117.608 80.9645 117.932C80.5445 118.244 80.3345 118.688 80.3345 119.264C80.3345 119.768 80.4845 120.134 80.7845 120.362C81.0845 120.59 81.4745 120.704 81.9545 120.704C82.6985 120.704 83.3165 120.494 83.8085 120.074C84.3125 119.654 84.5645 119.024 84.5645 118.184V117.338L83.2685 117.374ZM91.3004 122H89.3924V108.32H91.3004V122Z" fill="#103558"/>
<rect x="1" y="1" width="128" height="158" stroke="#103558" stroke-width="2"/>
</svg>
