<svg width="130" height="160" viewBox="0 0 130 160" fill="none" xmlns="http://www.w3.org/2000/svg">
<rect x="1" y="1" width="128" height="158" fill="white"/>
<path d="M31 29.0667L62.4006 20L99 29.0667M31 29.0667L68.6391 41.1556M31 29.0667V72.3624L68.6391 88M68.6391 41.1556L99 29.0667M68.6391 41.1556V88M99 29.0667V72.3624L68.6391 88" stroke="#103558"/>
<path d="M48.55 115.556C48.55 116.888 48.328 118.052 47.884 119.048C47.44 120.032 46.774 120.8 45.886 121.352C44.998 121.904 43.894 122.18 42.574 122.18C41.218 122.18 40.096 121.904 39.208 121.352C38.32 120.8 37.66 120.026 37.228 119.03C36.796 118.034 36.58 116.87 36.58 115.538C36.58 114.218 36.796 113.066 37.228 112.082C37.672 111.098 38.338 110.33 39.226 109.778C40.114 109.226 41.236 108.95 42.592 108.95C43.912 108.95 45.01 109.226 45.886 109.778C46.774 110.318 47.44 111.086 47.884 112.082C48.328 113.066 48.55 114.224 48.55 115.556ZM38.632 115.556C38.632 117.092 38.95 118.304 39.586 119.192C40.222 120.08 41.218 120.524 42.574 120.524C43.942 120.524 44.938 120.08 45.562 119.192C46.186 118.304 46.498 117.092 46.498 115.556C46.498 114.02 46.186 112.814 45.562 111.938C44.95 111.062 43.96 110.624 42.592 110.624C41.224 110.624 40.222 111.062 39.586 111.938C38.95 112.814 38.632 114.02 38.632 115.556ZM55.8608 113.756H53.4668V122H51.5588V113.756H49.9208V112.856L51.5588 112.262V111.65C51.5588 110.414 51.8408 109.538 52.4048 109.022C52.9808 108.494 53.7788 108.23 54.7988 108.23C55.2188 108.23 55.6028 108.266 55.9508 108.338C56.2988 108.41 56.5928 108.488 56.8328 108.572L56.3468 110.03C56.1428 109.97 55.9148 109.916 55.6628 109.868C55.4228 109.808 55.1648 109.778 54.8888 109.778C53.9408 109.778 53.4668 110.408 53.4668 111.668V112.298H55.8608V113.756ZM62.2868 113.756H59.8928V122H57.9848V113.756H56.3468V112.856L57.9848 112.262V111.65C57.9848 110.414 58.2668 109.538 58.8308 109.022C59.4068 108.494 60.2048 108.23 61.2248 108.23C61.6448 108.23 62.0288 108.266 62.3768 108.338C62.7248 108.41 63.0188 108.488 63.2588 108.572L62.7728 110.03C62.5688 109.97 62.3408 109.916 62.0888 109.868C61.8488 109.808 61.5908 109.778 61.3148 109.778C60.3668 109.778 59.8928 110.408 59.8928 111.668V112.298H62.2868V113.756ZM65.8688 122H63.9608V108.32H65.8688V122ZM69.8351 108.608C70.1231 108.608 70.3751 108.692 70.5911 108.86C70.8071 109.028 70.9151 109.31 70.9151 109.706C70.9151 110.09 70.8071 110.372 70.5911 110.552C70.3751 110.72 70.1231 110.804 69.8351 110.804C69.5231 110.804 69.2591 110.72 69.0431 110.552C68.8391 110.372 68.7371 110.09 68.7371 109.706C68.7371 109.31 68.8391 109.028 69.0431 108.86C69.2591 108.692 69.5231 108.608 69.8351 108.608ZM70.7711 112.298V122H68.8631V112.298H70.7711ZM78.6814 112.118C79.8094 112.118 80.6734 112.4 81.2734 112.964C81.8734 113.528 82.1734 114.434 82.1734 115.682V122H80.2834V115.952C80.2834 114.44 79.6174 113.684 78.2854 113.684C77.2894 113.684 76.6054 113.978 76.2334 114.566C75.8614 115.154 75.6754 116 75.6754 117.104V122H73.7674V112.298H75.2794L75.5494 113.594H75.6574C75.9694 113.09 76.3954 112.718 76.9354 112.478C77.4874 112.238 78.0694 112.118 78.6814 112.118ZM88.9213 112.118C90.1933 112.118 91.1953 112.514 91.9273 113.306C92.6593 114.086 93.0253 115.154 93.0253 116.51V117.554H86.5093C86.5333 118.55 86.7913 119.312 87.2833 119.84C87.7873 120.368 88.4893 120.632 89.3893 120.632C90.0133 120.632 90.5653 120.578 91.0453 120.47C91.5373 120.35 92.0413 120.176 92.5573 119.948V121.532C92.0653 121.748 91.5733 121.91 91.0813 122.018C90.5893 122.126 90.0013 122.18 89.3173 122.18C88.3693 122.18 87.5353 121.994 86.8153 121.622C86.1073 121.25 85.5493 120.698 85.1413 119.966C84.7453 119.222 84.5473 118.31 84.5473 117.23C84.5473 116.138 84.7273 115.214 85.0873 114.458C85.4593 113.702 85.9693 113.126 86.6173 112.73C87.2773 112.322 88.0453 112.118 88.9213 112.118ZM88.9213 113.594C88.2373 113.594 87.6853 113.816 87.2653 114.26C86.8573 114.704 86.6173 115.334 86.5453 116.15H91.1173C91.1053 115.394 90.9193 114.782 90.5593 114.314C90.2113 113.834 89.6653 113.594 88.9213 113.594Z" fill="#103558"/>
<rect x="1" y="1" width="128" height="158" stroke="#103558" stroke-width="2"/>
</svg>
