<svg width="130" height="160" viewBox="0 0 130 160" fill="none" xmlns="http://www.w3.org/2000/svg">
<rect x="1" y="1" width="128" height="158" fill="white"/>
<path d="M51.6582 20V40.3419M51.6582 20L90.6076 35.1111L99 57.1966M51.6582 20L34.8734 51.1909L31 75.2137M51.6582 40.3419L99 57.1966M51.6582 40.3419L31 75.2137M99 57.1966L74.6835 88L31 75.2137" stroke="#103558"/>
<path d="M17.7774 120H12.7914V118.884L14.3214 118.434V108.732L12.7914 108.264V107.148H17.7774V108.264L16.2654 108.732V118.434L17.7774 118.884V120ZM27.9705 120.18C26.8065 120.18 25.8645 119.76 25.1445 118.92C24.4365 118.08 24.0825 116.832 24.0825 115.176C24.0825 113.508 24.4425 112.248 25.1625 111.396C25.8825 110.544 26.8305 110.118 28.0065 110.118C28.7385 110.118 29.3385 110.256 29.8065 110.532C30.2745 110.808 30.6525 111.144 30.9405 111.54H31.0485C31.0245 111.384 30.9945 111.144 30.9585 110.82C30.9225 110.496 30.9045 110.208 30.9045 109.956V106.32H32.8125V120H31.3185L30.9945 118.704H30.9045C30.6285 119.124 30.2565 119.478 29.7885 119.766C29.3205 120.042 28.7145 120.18 27.9705 120.18ZM28.4205 118.614C29.3565 118.614 30.0165 118.356 30.4005 117.84C30.7845 117.312 30.9765 116.526 30.9765 115.482V115.194C30.9765 114.066 30.7905 113.202 30.4185 112.602C30.0585 111.99 29.3865 111.684 28.4025 111.684C27.6225 111.684 27.0345 112.002 26.6385 112.638C26.2425 113.262 26.0445 114.12 26.0445 115.212C26.0445 116.304 26.2425 117.144 26.6385 117.732C27.0345 118.32 27.6285 118.614 28.4205 118.614ZM44.3526 115.14C44.3526 116.748 43.9386 117.99 43.1106 118.866C42.2826 119.742 41.1666 120.18 39.7626 120.18C38.8866 120.18 38.1066 119.982 37.4226 119.586C36.7506 119.19 36.2166 118.62 35.8206 117.876C35.4366 117.12 35.2446 116.208 35.2446 115.14C35.2446 113.532 35.6526 112.296 36.4686 111.432C37.2846 110.556 38.4006 110.118 39.8166 110.118C40.7046 110.118 41.4846 110.316 42.1566 110.712C42.8406 111.096 43.3746 111.66 43.7586 112.404C44.1546 113.148 44.3526 114.06 44.3526 115.14ZM37.2066 115.14C37.2066 116.232 37.4106 117.084 37.8186 117.696C38.2386 118.308 38.8986 118.614 39.7986 118.614C40.6986 118.614 41.3526 118.308 41.7606 117.696C42.1806 117.084 42.3906 116.232 42.3906 115.14C42.3906 114.036 42.1806 113.19 41.7606 112.602C41.3406 112.002 40.6806 111.702 39.7806 111.702C38.8806 111.702 38.2266 112.002 37.8186 112.602C37.4106 113.19 37.2066 114.036 37.2066 115.14ZM51.6853 110.118C52.8133 110.118 53.6773 110.4 54.2773 110.964C54.8773 111.528 55.1773 112.434 55.1773 113.682V120H53.2873V113.952C53.2873 112.44 52.6213 111.684 51.2893 111.684C50.2933 111.684 49.6093 111.978 49.2373 112.566C48.8653 113.154 48.6793 114 48.6793 115.104V120H46.7713V110.298H48.2833L48.5533 111.594H48.6613C48.9733 111.09 49.3993 110.718 49.9393 110.478C50.4913 110.238 51.0733 110.118 51.6853 110.118ZM59.5895 107.346C59.4335 107.982 59.2115 108.684 58.9235 109.452C58.6355 110.208 58.3415 110.91 58.0415 111.558H56.6555C56.8235 110.874 56.9915 110.124 57.1595 109.308C57.3275 108.492 57.4595 107.772 57.5555 107.148H59.4635L59.5895 107.346ZM64.7829 118.632C65.0349 118.632 65.2929 118.614 65.5569 118.578C65.8209 118.53 66.0489 118.47 66.2409 118.398V119.838C66.0249 119.934 65.7429 120.012 65.3949 120.072C65.0589 120.144 64.7169 120.18 64.3689 120.18C63.8409 120.18 63.3549 120.09 62.9109 119.91C62.4669 119.73 62.1129 119.418 61.8489 118.974C61.5969 118.53 61.4709 117.912 61.4709 117.12V111.756H60.1209V110.892L61.5429 110.172L62.2089 108.12H63.3789V110.298H66.1509V111.756H63.3789V117.084C63.3789 117.612 63.5049 118.002 63.7569 118.254C64.0209 118.506 64.3629 118.632 64.7829 118.632ZM74.7473 113.16C74.7473 113.4 74.7353 113.688 74.7113 114.024C74.6873 114.36 74.6693 114.66 74.6573 114.924H74.7113C74.8433 114.744 75.0233 114.51 75.2513 114.222C75.4913 113.922 75.7013 113.676 75.8813 113.484L78.8513 110.298H81.0653L77.1593 114.456L81.3173 120H79.0673L75.8633 115.662L74.7473 116.598V120H72.8573V106.32H74.7473V113.16ZM87.826 110.118C88.954 110.118 89.818 110.4 90.418 110.964C91.018 111.528 91.318 112.434 91.318 113.682V120H89.428V113.952C89.428 112.44 88.762 111.684 87.43 111.684C86.434 111.684 85.75 111.978 85.378 112.566C85.006 113.154 84.82 114 84.82 115.104V120H82.912V110.298H84.424L84.694 111.594H84.802C85.114 111.09 85.54 110.718 86.08 110.478C86.632 110.238 87.214 110.118 87.826 110.118ZM102.8 115.14C102.8 116.748 102.386 117.99 101.558 118.866C100.73 119.742 99.6139 120.18 98.2099 120.18C97.3339 120.18 96.5539 119.982 95.8699 119.586C95.1979 119.19 94.6639 118.62 94.2679 117.876C93.8839 117.12 93.6919 116.208 93.6919 115.14C93.6919 113.532 94.0999 112.296 94.9159 111.432C95.7319 110.556 96.8479 110.118 98.2639 110.118C99.1519 110.118 99.9319 110.316 100.604 110.712C101.288 111.096 101.822 111.66 102.206 112.404C102.602 113.148 102.8 114.06 102.8 115.14ZM95.6539 115.14C95.6539 116.232 95.8579 117.084 96.2659 117.696C96.6859 118.308 97.3459 118.614 98.2459 118.614C99.1459 118.614 99.7999 118.308 100.208 117.696C100.628 117.084 100.838 116.232 100.838 115.14C100.838 114.036 100.628 113.19 100.208 112.602C99.7879 112.002 99.1279 111.702 98.2279 111.702C97.3279 111.702 96.6739 112.002 96.2659 112.602C95.8579 113.19 95.6539 114.036 95.6539 115.14ZM111.419 115.14C111.323 114.828 111.221 114.468 111.113 114.06C111.017 113.652 110.927 113.268 110.843 112.908C110.759 112.536 110.693 112.254 110.645 112.062H110.573C110.537 112.254 110.477 112.536 110.393 112.908C110.309 113.28 110.213 113.67 110.105 114.078C110.009 114.486 109.913 114.846 109.817 115.158L108.377 119.982H106.253L103.571 110.28H105.515L106.775 115.194C106.907 115.698 107.027 116.238 107.135 116.814C107.255 117.378 107.339 117.834 107.387 118.182H107.459C107.495 117.978 107.543 117.708 107.603 117.372C107.675 117.036 107.747 116.7 107.819 116.364C107.903 116.016 107.981 115.734 108.053 115.518L109.601 110.28H111.689L113.201 115.518C113.273 115.758 113.351 116.046 113.435 116.382C113.519 116.706 113.591 117.03 113.651 117.354C113.723 117.666 113.771 117.936 113.795 118.164H113.867C113.891 117.972 113.933 117.708 113.993 117.372C114.053 117.036 114.125 116.676 114.209 116.292C114.305 115.908 114.395 115.542 114.479 115.194L115.775 110.28H117.701L114.983 119.982H112.805L111.419 115.14Z" fill="#103558"/>
<rect x="1" y="1" width="128" height="158" stroke="#103558" stroke-width="2"/>
</svg>
